<svg viewBox="0 0 1002 400" xmlns="http://www.w3.org/2000/svg"><g><g><g><g><g><line x1="48.875" y1="374.88367843549946" x2="43.875" y2="374.88367843549946" style="visibility: inherit;" fill="rgb(0, 0, 0)" stroke="rgb(204, 204, 204)" stroke-width="1px"></line><line x1="48.875" y1="323.8526769258448" x2="43.875" y2="323.8526769258448" style="visibility: inherit;" fill="rgb(0, 0, 0)" stroke="rgb(204, 204, 204)" stroke-width="1px"></line><line x1="48.875" y1="294.001454668452" x2="43.875" y2="294.001454668452" style="visibility: inherit;" fill="rgb(0, 0, 0)" stroke="rgb(204, 204, 204)" stroke-width="1px"></line><line x1="48.875" y1="272.82167541619003" x2="43.875" y2="272.82167541619003" style="visibility: inherit;" fill="rgb(0, 0, 0)" stroke="rgb(204, 204, 204)" stroke-width="1px"></line><line x1="48.875" y1="256.3933623199928" x2="43.875" y2="256.3933623199928" style="visibility: inherit;" fill="rgb(0, 0, 0)" stroke="rgb(204, 204, 204)" stroke-width="1px"></line><line x1="48.875" y1="242.97045315879728" x2="43.875" y2="242.97045315879728" style="visibility: inherit;" fill="rgb(0, 0, 0)" stroke="rgb(204, 204, 204)" stroke-width="1px"></line><line x1="48.875" y1="231.62154516984126" x2="43.875" y2="231.62154516984126" style="visibility: inherit;" fill="rgb(0, 0, 0)" stroke="rgb(204, 204, 204)" stroke-width="1px"></line><line x1="48.875" y1="221.79067390653532" x2="43.875" y2="221.79067390653532" style="visibility: inherit;" fill="rgb(0, 0, 0)" stroke="rgb(204, 204, 204)" stroke-width="1px"></line><line x1="48.875" y1="213.1192309014046" x2="43.875" y2="213.1192309014046" style="visibility: inherit;" fill="rgb(0, 0, 0)" stroke="rgb(204, 204, 204)" stroke-width="1px"></line><line x1="48.875" y1="205.36236081033806" x2="43.875" y2="205.36236081033806" style="visibility: inherit;" fill="rgb(0, 0, 0)" stroke="rgb(204, 204, 204)" stroke-width="1px"></line><line x1="48.875" y1="154.33135930068332" x2="43.875" y2="154.33135930068332" style="visibility: inherit;" fill="rgb(0, 0, 0)" stroke="rgb(204, 204, 204)" stroke-width="1px"></line><line x1="48.875" y1="124.4801370432906" x2="43.875" y2="124.4801370432906" style="visibility: inherit;" fill="rgb(0, 0, 0)" stroke="rgb(204, 204, 204)" stroke-width="1px"></line><line x1="48.875" y1="103.3003577910286" x2="43.875" y2="103.3003577910286" style="visibility: inherit;" fill="rgb(0, 0, 0)" stroke="rgb(204, 204, 204)" stroke-width="1px"></line><line x1="48.875" y1="86.87204469483135" x2="43.875" y2="86.87204469483135" style="visibility: inherit;" fill="rgb(0, 0, 0)" stroke="rgb(204, 204, 204)" stroke-width="1px"></line><line x1="48.875" y1="73.44913553363585" x2="43.875" y2="73.44913553363585" style="visibility: inherit;" fill="rgb(0, 0, 0)" stroke="rgb(204, 204, 204)" stroke-width="1px"></line><line x1="48.875" y1="62.10022754467985" x2="43.875" y2="62.10022754467985" style="visibility: inherit;" fill="rgb(0, 0, 0)" stroke="rgb(204, 204, 204)" stroke-width="1px"></line><line x1="48.875" y1="52.26935628137386" x2="43.875" y2="52.26935628137386" style="visibility: inherit;" fill="rgb(0, 0, 0)" stroke="rgb(204, 204, 204)" stroke-width="1px"></line><line x1="48.875" y1="43.59791327624322" x2="43.875" y2="43.59791327624322" style="visibility: inherit;" fill="rgb(0, 0, 0)" stroke="rgb(204, 204, 204)" stroke-width="1px"></line><line x1="48.875" y1="35.8410431851766" x2="43.875" y2="35.8410431851766" style="visibility: inherit;" fill="rgb(0, 0, 0)" stroke="rgb(204, 204, 204)" stroke-width="1px"></line></g><g transform="translate(38.875, 0)"><text x="0" y="374.88367843549946" dx="0em" dy="0.3em" style="text-anchor: end; visibility: hidden; font-family: &quot;Helvetica Neue&quot;, sans-serif; font-size: 12px; font-weight: 200;" fill="rgb(50, 49, 63)" stroke="none" stroke-width="1px">0.01</text><text x="0" y="323.8526769258448" dx="0em" dy="0.3em" style="text-anchor: end; visibility: inherit; font-family: &quot;Helvetica Neue&quot;, sans-serif; font-size: 12px; font-weight: 200;" fill="rgb(50, 49, 63)" stroke="none" stroke-width="1px">0.02</text><text x="0" y="294.001454668452" dx="0em" dy="0.3em" style="text-anchor: end; visibility: hidden; font-family: &quot;Helvetica Neue&quot;, sans-serif; font-size: 12px; font-weight: 200;" fill="rgb(50, 49, 63)" stroke="none" stroke-width="1px">0.03</text><text x="0" y="272.82167541619003" dx="0em" dy="0.3em" style="text-anchor: end; visibility: hidden; font-family: &quot;Helvetica Neue&quot;, sans-serif; font-size: 12px; font-weight: 200;" fill="rgb(50, 49, 63)" stroke="none" stroke-width="1px">0.04</text><text x="0" y="256.3933623199928" dx="0em" dy="0.3em" style="text-anchor: end; visibility: inherit; font-family: &quot;Helvetica Neue&quot;, sans-serif; font-size: 12px; font-weight: 200;" fill="rgb(50, 49, 63)" stroke="none" stroke-width="1px">0.05</text><text x="0" y="242.97045315879728" dx="0em" dy="0.3em" style="text-anchor: end; visibility: hidden; font-family: &quot;Helvetica Neue&quot;, sans-serif; font-size: 12px; font-weight: 200;" fill="rgb(50, 49, 63)" stroke="none" stroke-width="1px">0.06</text><text x="0" y="231.62154516984126" dx="0em" dy="0.3em" style="text-anchor: end; visibility: hidden; font-family: &quot;Helvetica Neue&quot;, sans-serif; font-size: 12px; font-weight: 200;" fill="rgb(50, 49, 63)" stroke="none" stroke-width="1px">0.07</text><text x="0" y="221.79067390653532" dx="0em" dy="0.3em" style="text-anchor: end; visibility: inherit; font-family: &quot;Helvetica Neue&quot;, sans-serif; font-size: 12px; font-weight: 200;" fill="rgb(50, 49, 63)" stroke="none" stroke-width="1px">0.08</text><text x="0" y="213.1192309014046" dx="0em" dy="0.3em" style="text-anchor: end; visibility: hidden; font-family: &quot;Helvetica Neue&quot;, sans-serif; font-size: 12px; font-weight: 200;" fill="rgb(50, 49, 63)" stroke="none" stroke-width="1px">0.09</text><text x="0" y="205.36236081033806" dx="0em" dy="0.3em" style="text-anchor: end; visibility: hidden; font-family: &quot;Helvetica Neue&quot;, sans-serif; font-size: 12px; font-weight: 200;" fill="rgb(50, 49, 63)" stroke="none" stroke-width="1px">0.1</text><text x="0" y="154.33135930068332" dx="0em" dy="0.3em" style="text-anchor: end; visibility: inherit; font-family: &quot;Helvetica Neue&quot;, sans-serif; font-size: 12px; font-weight: 200;" fill="rgb(50, 49, 63)" stroke="none" stroke-width="1px">0.2</text><text x="0" y="124.4801370432906" dx="0em" dy="0.3em" style="text-anchor: end; visibility: hidden; font-family: &quot;Helvetica Neue&quot;, sans-serif; font-size: 12px; font-weight: 200;" fill="rgb(50, 49, 63)" stroke="none" stroke-width="1px">0.3</text><text x="0" y="103.3003577910286" dx="0em" dy="0.3em" style="text-anchor: end; visibility: hidden; font-family: &quot;Helvetica Neue&quot;, sans-serif; font-size: 12px; font-weight: 200;" fill="rgb(50, 49, 63)" stroke="none" stroke-width="1px">0.4</text><text x="0" y="86.87204469483135" dx="0em" dy="0.3em" style="text-anchor: end; visibility: inherit; font-family: &quot;Helvetica Neue&quot;, sans-serif; font-size: 12px; font-weight: 200;" fill="rgb(50, 49, 63)" stroke="none" stroke-width="1px">0.5</text><text x="0" y="73.44913553363585" dx="0em" dy="0.3em" style="text-anchor: end; visibility: hidden; font-family: &quot;Helvetica Neue&quot;, sans-serif; font-size: 12px; font-weight: 200;" fill="rgb(50, 49, 63)" stroke="none" stroke-width="1px">0.6</text><text x="0" y="62.10022754467985" dx="0em" dy="0.3em" style="text-anchor: end; visibility: hidden; font-family: &quot;Helvetica Neue&quot;, sans-serif; font-size: 12px; font-weight: 200;" fill="rgb(50, 49, 63)" stroke="none" stroke-width="1px">0.7</text><text x="0" y="52.26935628137386" dx="0em" dy="0.3em" style="text-anchor: end; visibility: inherit; font-family: &quot;Helvetica Neue&quot;, sans-serif; font-size: 12px; font-weight: 200;" fill="rgb(50, 49, 63)" stroke="none" stroke-width="1px">0.8</text><text x="0" y="43.59791327624322" dx="0em" dy="0.3em" style="text-anchor: end; visibility: hidden; font-family: &quot;Helvetica Neue&quot;, sans-serif; font-size: 12px; font-weight: 200;" fill="rgb(50, 49, 63)" stroke="none" stroke-width="1px">0.9</text><text x="0" y="35.8410431851766" dx="0em" dy="0.3em" style="text-anchor: end; visibility: hidden; font-family: &quot;Helvetica Neue&quot;, sans-serif; font-size: 12px; font-weight: 200;" fill="rgb(50, 49, 63)" stroke="none" stroke-width="1px">1</text></g><line x1="48.875" y1="0" x2="48.875" y2="377.828125" fill="rgb(0, 0, 0)" stroke="rgb(204, 204, 204)" stroke-width="1px"></line></g></g><g transform="translate(48, 0)" clip-path="url(#clip_0)"><clipPath id="clip_0"><rect width="953" height="377"></rect></clipPath><g><g><g><line x1="0" y1="0" x2="0" y2="377.828125" fill="rgb(0, 0, 0)" stroke="rgb(60, 60, 60)" stroke-width="1px" opacity="0.25"></line><line x1="79.42708333333333" y1="0" x2="79.42708333333333" y2="377.828125" fill="rgb(0, 0, 0)" stroke="rgb(60, 60, 60)" stroke-width="1px" opacity="0.25"></line><line x1="158.85416666666666" y1="0" x2="158.85416666666666" y2="377.828125" fill="rgb(0, 0, 0)" stroke="rgb(60, 60, 60)" stroke-width="1px" opacity="0.25"></line><line x1="238.28125" y1="0" x2="238.28125" y2="377.828125" fill="rgb(0, 0, 0)" stroke="rgb(60, 60, 60)" stroke-width="1px" opacity="0.25"></line><line x1="317.7083333333333" y1="0" x2="317.7083333333333" y2="377.828125" fill="rgb(0, 0, 0)" stroke="rgb(60, 60, 60)" stroke-width="1px" opacity="0.25"></line><line x1="397.1354166666667" y1="0" x2="397.1354166666667" y2="377.828125" fill="rgb(0, 0, 0)" stroke="rgb(60, 60, 60)" stroke-width="1px" opacity="0.25"></line><line x1="476.5625" y1="0" x2="476.5625" y2="377.828125" fill="rgb(0, 0, 0)" stroke="rgb(60, 60, 60)" stroke-width="1px" opacity="0.25"></line><line x1="555.9895833333334" y1="0" x2="555.9895833333334" y2="377.828125" fill="rgb(0, 0, 0)" stroke="rgb(60, 60, 60)" stroke-width="1px" opacity="0.25"></line><line x1="635.4166666666666" y1="0" x2="635.4166666666666" y2="377.828125" fill="rgb(0, 0, 0)" stroke="rgb(60, 60, 60)" stroke-width="1px" opacity="0.25"></line><line x1="714.84375" y1="0" x2="714.84375" y2="377.828125" fill="rgb(0, 0, 0)" stroke="rgb(60, 60, 60)" stroke-width="1px" opacity="0.25"></line><line x1="794.2708333333334" y1="0" x2="794.2708333333334" y2="377.828125" fill="rgb(0, 0, 0)" stroke="rgb(60, 60, 60)" stroke-width="1px" opacity="0.25"></line><line x1="873.6979166666666" y1="0" x2="873.6979166666666" y2="377.828125" fill="rgb(0, 0, 0)" stroke="rgb(60, 60, 60)" stroke-width="1px" opacity="0.25"></line><line x1="953.125" y1="0" x2="953.125" y2="377.828125" fill="rgb(0, 0, 0)" stroke="rgb(60, 60, 60)" stroke-width="1px" opacity="0.25"></line></g><g><line x1="0" y1="374.88367843549946" x2="953.125" y2="374.88367843549946" fill="rgb(0, 0, 0)" stroke="rgb(60, 60, 60)" stroke-width="1px" opacity="0.25"></line><line x1="0" y1="323.8526769258448" x2="953.125" y2="323.8526769258448" fill="rgb(0, 0, 0)" stroke="rgb(60, 60, 60)" stroke-width="1px" opacity="0.25"></line><line x1="0" y1="294.001454668452" x2="953.125" y2="294.001454668452" fill="rgb(0, 0, 0)" stroke="rgb(60, 60, 60)" stroke-width="1px" opacity="0.25"></line><line x1="0" y1="272.82167541619003" x2="953.125" y2="272.82167541619003" fill="rgb(0, 0, 0)" stroke="rgb(60, 60, 60)" stroke-width="1px" opacity="0.25"></line><line x1="0" y1="256.3933623199928" x2="953.125" y2="256.3933623199928" fill="rgb(0, 0, 0)" stroke="rgb(60, 60, 60)" stroke-width="1px" opacity="0.25"></line><line x1="0" y1="242.97045315879728" x2="953.125" y2="242.97045315879728" fill="rgb(0, 0, 0)" stroke="rgb(60, 60, 60)" stroke-width="1px" opacity="0.25"></line><line x1="0" y1="231.62154516984126" x2="953.125" y2="231.62154516984126" fill="rgb(0, 0, 0)" stroke="rgb(60, 60, 60)" stroke-width="1px" opacity="0.25"></line><line x1="0" y1="221.79067390653532" x2="953.125" y2="221.79067390653532" fill="rgb(0, 0, 0)" stroke="rgb(60, 60, 60)" stroke-width="1px" opacity="0.25"></line><line x1="0" y1="213.1192309014046" x2="953.125" y2="213.1192309014046" fill="rgb(0, 0, 0)" stroke="rgb(60, 60, 60)" stroke-width="1px" opacity="0.25"></line><line x1="0" y1="205.36236081033806" x2="953.125" y2="205.36236081033806" fill="rgb(0, 0, 0)" stroke="rgb(60, 60, 60)" stroke-width="1px" opacity="0.25"></line><line x1="0" y1="154.33135930068332" x2="953.125" y2="154.33135930068332" fill="rgb(0, 0, 0)" stroke="rgb(60, 60, 60)" stroke-width="1px" opacity="0.25"></line><line x1="0" y1="124.4801370432906" x2="953.125" y2="124.4801370432906" fill="rgb(0, 0, 0)" stroke="rgb(60, 60, 60)" stroke-width="1px" opacity="0.25"></line><line x1="0" y1="103.3003577910286" x2="953.125" y2="103.3003577910286" fill="rgb(0, 0, 0)" stroke="rgb(60, 60, 60)" stroke-width="1px" opacity="0.25"></line><line x1="0" y1="86.87204469483135" x2="953.125" y2="86.87204469483135" fill="rgb(0, 0, 0)" stroke="rgb(60, 60, 60)" stroke-width="1px" opacity="0.25"></line><line x1="0" y1="73.44913553363585" x2="953.125" y2="73.44913553363585" fill="rgb(0, 0, 0)" stroke="rgb(60, 60, 60)" stroke-width="1px" opacity="0.25"></line><line x1="0" y1="62.10022754467985" x2="953.125" y2="62.10022754467985" fill="rgb(0, 0, 0)" stroke="rgb(60, 60, 60)" stroke-width="1px" opacity="0.25"></line><line x1="0" y1="52.26935628137386" x2="953.125" y2="52.26935628137386" fill="rgb(0, 0, 0)" stroke="rgb(60, 60, 60)" stroke-width="1px" opacity="0.25"></line><line x1="0" y1="43.59791327624322" x2="953.125" y2="43.59791327624322" fill="rgb(0, 0, 0)" stroke="rgb(60, 60, 60)" stroke-width="1px" opacity="0.25"></line><line x1="0" y1="35.8410431851766" x2="953.125" y2="35.8410431851766" fill="rgb(0, 0, 0)" stroke="rgb(60, 60, 60)" stroke-width="1px" opacity="0.25"></line></g></g></g><g><g><line x1="79.42708333333333" y1="0" x2="79.42708333333333" y2="377.828125" fill="rgb(0, 0, 0)" stroke="rgb(153, 153, 153)" stroke-width="1.5px"></line></g></g><g><g><g><g><g><path stroke="rgb(0, 119, 187)" stroke-width="2px" d="M79.42708333333333,180.59054334674198L87.36979166666666,149.00695702066062L95.3125,119.82263884829712L103.25520833333334,119.7794409049389L111.19791666666667,109.5221631166562L119.140625,110.16234487625343L127.08333333333333,98.95514195876251L135.02604166666666,98.5552023769443L142.96875,94.92475271839965L150.91145833333331,96.13749429608498L158.85416666666666,89.77503815952343L166.796875,89.81607526591853L174.73958333333331,82.81830287377107L182.68229166666669,82.72368273505606L190.625,76.78630584998717L198.56770833333334,74.93021140947303L206.51041666666669,75.3345357926159L214.453125,74.07774888701039L222.39583333333334,76.33472202830984L230.33854166666666,69.37197356997268L238.28125,69.56564424185848L246.22395833333337,71.09456688538796L254.16666666666666,71.54752065628287L262.109375,73.27514750145485L270.0520833333333,72.37092149973512L277.9947916666667,72.8003136691375L285.9375,72.57254592255799L293.88020833333337,67.29480984825898L301.82291666666663,75.51633970493702L309.765625,75.18328666849078L317.7083333333333,71.55710049820038L325.6510416666667,71.34784668556699L333.59375,69.34202970567907L341.5364583333333,73.86087500604862L349.47916666666663,71.75194600755066L357.421875,66.83538606626962L365.36458333333337,64.90462591472686L373.3072916666667,69.12426346311793L381.25,66.2337487326102L389.1927083333333,66.75989009999074L397.1354166666667,70.76941419486838L405.078125,69.00374635788745L413.02083333333337,67.96432057450329L420.96354166666663,68.71560232342705L428.90625,68.7084292792307L436.8489583333333,68.24537951013815L444.7916666666667,69.81430060279621L452.734375,70.77195675076422L460.6770833333333,67.17979673247436L468.61979166666663,65.54526453710571L476.5625,67.23981632554643L484.5052083333333,72.0297658660985L492.44791666666674,75.06083657075368L500.390625,70.53747474195717L508.3333333333333,64.39445896050188L516.2760416666666,65.64291707789982L524.21875,65.07625315522779L532.1614583333334,65.61563488441726L540.1041666666666,69.57523781396065L548.046875,66.04836056050732L555.9895833333334,69.84892392466986L563.9322916666666,68.46314495199704L571.875,67.64402767169912L579.8177083333333,63.63750274554252L587.7604166666667,67.40673700673511L595.703125,66.12133329896193L603.6458333333333,61.50570758222699L611.5885416666667,60.087055820551825L619.53125,60.47307524888106L627.4739583333334,58.67004386968944L635.4166666666666,59.615138823789664L643.359375,62.26670328683639L651.3020833333334,61.362313120653994L659.2447916666666,62.49771970313111L667.1875,64.47961037542814L675.1302083333334,63.948745789773L683.0729166666666,64.93209385873217L691.015625,65.08903267876752L698.9583333333333,66.0660087594178L706.9010416666667,68.01357779403605L714.84375,74.48903010885067L722.7864583333333,68.3590000634855L730.7291666666667,66.68131080104382L738.671875,67.48124029485155L746.6145833333334,66.61117988408205L754.5572916666666,67.89242583441614L762.5,63.349399779197995L770.4427083333334,62.42341927812794L778.3854166666666,61.87337022360475L786.328125,62.38515208902328L794.2708333333334,63.11926794291588L802.2135416666666,67.53055466516906L810.15625,63.57300360225861L818.0989583333333,60.46912748844227L826.0416666666667,59.07036517295853L833.984375,61.09270566301632L841.9270833333333,64.91008876424843L849.8697916666667,66.84918829848323L857.8125,67.1311867753156L865.7552083333334,65.51673506895457" style="fill: none;" fill="none"></path></g><g><path stroke="rgb(255, 112, 67)" stroke-width="2px" d="M79.42708333333333,323.85267857142856L80.22135416666667,275.15908300376276L81.015625,208.7443471139122L81.80989583333333,178.75753022614637L82.60416666666667,156.55645381019062L83.3984375,160.48739525241024L84.19270833333333,173.80243219480596L84.98697916666667,146.89701670545455L85.78125,161.95003466706507L86.57552083333333,160.37955303410357L87.36979166666666,136.50524844013276L88.1640625,134.76440041684785L88.95833333333334,137.16403508186247L89.75260416666666,123.61326645936745L90.546875,131.12257893621842L91.34114583333334,132.65558590480313L92.13541666666667,115.89749176769999L92.9296875,118.3035152719687L93.72395833333333,118.87030663011268L94.51822916666667,121.06329575534232L95.3125,115.14606380033348L96.10677083333333,116.06419445429452L96.90104166666667,100.80339268055747L97.6953125,100.3634058891929L98.48958333333333,113.18015667097183L99.28385416666667,104.43911608667764L100.078125,94.2509115420861L100.87239583333333,100.52090914407631L101.66666666666667,99.49234534751184L102.4609375,98.88203494437829L103.25520833333334,93.84061396151264L104.04947916666666,99.54958546423597L104.84375,95.52701272355239L105.63802083333334,99.2319615879299L106.43229166666666,110.72345305852645L107.2265625,114.19451104524785L108.02083333333333,100.5920055266709L108.81510416666667,103.85584188888328L109.609375,105.8859341456353L110.40364583333333,97.6824614903125L111.19791666666667,102.74466809612665L111.9921875,102.96644047965054L112.78645833333333,100.22001444580593L113.58072916666667,105.11626341714293L114.375,98.63762141487325L115.16927083333333,98.37223975308962L115.96354166666667,92.27584021547835L116.7578125,93.85279023621388L117.55208333333334,89.74544793283349L118.34635416666666,91.66014221111328L119.140625,91.56697566979932L119.93489583333333,95.37445204004382L120.72916666666667,81.30428364222098L121.5234375,81.26495551975961L122.31770833333333,83.45681759681145L123.11197916666669,85.95828613164502L123.90625,94.34370885344708L124.70052083333333,92.52456511377164L125.49479166666666,88.38514252188708L126.2890625,87.77616663687616L127.08333333333333,85.65439525029336L127.87760416666666,87.31466316093554L128.671875,84.81005555441686L129.46614583333334,80.05333261325683L130.26041666666666,82.7055248582717L131.0546875,78.33585028892537L131.84895833333334,83.2967581290639L132.64322916666666,80.80784305505347L133.4375,84.30278450368877L134.23177083333334,88.86384079796869L135.02604166666666,87.46450179686127L135.8203125,86.63748970136197L136.61458333333334,82.17250562214844L137.40885416666666,78.55820752080803L138.203125,73.46574622606391L138.99739583333334,72.96984912531497L139.79166666666666,76.66557701532719L140.5859375,78.44828802949229L141.38020833333334,80.61308900358614L142.17447916666666,77.14543843284042L142.96875,80.34236004155508L143.76302083333334,79.07972146781242L144.55729166666669,77.2908596953597L145.3515625,79.36197400413698L146.14583333333331,75.41159471973214L146.94010416666669,74.6203215510696L147.734375,74.64679193940361L148.52864583333331,74.16538772255836L149.32291666666669,71.92934107934519L150.1171875,74.00229846939641L150.91145833333331,74.7732556506009L151.70572916666669,77.27931848850756L152.5,76.23121451255406L153.29427083333331,80.30490850291238L154.08854166666666,77.48553721208276L154.8828125,79.48205230239444L155.67708333333334,74.97703411671978L156.47135416666666,71.91838085917294L157.265625,71.08692962053516L158.05989583333334,71.06618417574668L158.85416666666666,72.49302522559788L159.6484375,70.9513262878009L160.44270833333334,72.42274058075162L161.23697916666666,69.50106146490725L162.03125,68.7169491393924L162.82552083333334,74.94909351357899L163.61979166666666,73.35843104074246L164.4140625,75.38311806438037L165.20833333333334,77.65731096828955L166.00260416666666,79.587902348652L166.796875,71.60729149993205L167.59114583333334,74.29822496035831L168.38541666666666,78.54537805031941L169.1796875,78.0145679057656L169.97395833333334,75.14289636163443L170.76822916666666,74.46070773876914L171.5625,74.55094770106928L172.35677083333334,71.67283141731258L173.15104166666666,70.94115567190471L173.9453125,69.56845013935634L174.73958333333331,73.02276034372113L175.53385416666669,71.26211872136071L176.328125,72.12914389692276L177.12239583333331,73.14145756853156L177.91666666666669,71.81008059015346L178.7109375,70.54928388798226L179.50520833333331,70.27162818269477L180.29947916666669,73.46415011128755L181.09375,71.52037317808987L181.88802083333331,69.90900901562281L182.68229166666669,73.72776140386469L183.4765625,74.606677258111L184.27083333333334,78.21577620338064L185.06510416666666,72.7857969298841L185.859375,70.17819576614767L186.65364583333334,70.5197524016125L187.44791666666666,68.39769707130887L188.2421875,71.80286270773047L189.03645833333334,73.43187713027334L189.83072916666666,76.95672711400067L190.625,75.03038838072814L191.41927083333334,71.46973214814477L192.21354166666666,78.8169892341977L193.0078125,79.23047888306564L193.80208333333334,81.64198053542339L194.59635416666666,79.84345639113218L195.390625,74.6799993267357L196.18489583333334,83.13552388559737L196.97916666666666,78.0543150647714L197.7734375,74.66514301411667L198.56770833333334,76.18626120595371L199.36197916666666,70.69605044841967L200.15625,75.72741796864545L200.95052083333334,76.83511102008259L201.74479166666666,81.23080686006966L202.5390625,76.98163502600579L203.33333333333334,77.07906823202103L204.12760416666669,75.60554847448833L204.921875,72.27948772077423L205.71614583333331,69.88455741903493L206.51041666666669,70.81465475933351L207.3046875,66.75466971059484L208.09895833333331,70.2943719766464L208.89322916666669,74.96636645922189L209.6875,75.35627751385681L210.48177083333331,77.12295649823619L211.27604166666669,81.96294458125749L212.0703125,83.88748512521164L212.86458333333331,78.47445643158363L213.65885416666666,73.9110992405395L214.453125,75.21899378381954L215.24739583333334,73.02715648847874L216.04166666666666,73.68641886579746L216.8359375,76.60275080748238L217.63020833333334,74.32491064835176L218.42447916666666,72.50512259901978L219.21875,72.39583640275083L220.01302083333334,66.29985029319658L220.80729166666666,67.24962786199319L221.6015625,66.92156281218553L222.39583333333334,72.30750142344812L223.19010416666666,75.23435902888843L223.984375,66.94986121362246L224.77864583333334,69.94768352458027L225.57291666666666,69.91143601601107L226.3671875,65.79675896592164L227.16145833333334,63.863640397026984L227.95572916666666,65.75933704021918L228.75,66.02774078162162L229.54427083333334,62.714746923850555L230.33854166666666,62.89234895486908L231.1328125,62.574477447796426L231.92708333333334,64.09339291938494L232.72135416666666,67.69431127871155L233.515625,71.83870419702095L234.30989583333331,71.99585448891474L235.10416666666669,73.0603479365061L235.8984375,75.19913879258212L236.69270833333331,78.58855750131636L237.48697916666669,80.16010149447158L238.28125,72.88250270738865L239.07552083333334,70.70553531637711L239.86979166666666,73.7357328848912L240.6640625,69.32133988732102L241.45833333333334,69.53517558336739L242.25260416666666,70.13147428083556L243.046875,74.3635469980021L243.84114583333334,73.99641723783327L244.63541666666666,75.27109035660493L245.4296875,76.04662381757208L246.22395833333337,70.14746471353368L247.01822916666666,68.63878274117542L247.8125,73.41144160814378L248.60677083333331,70.5398713241238L249.40104166666666,72.17061108489833L250.1953125,71.7142935833121L250.98958333333331,70.02278040635997L251.78385416666666,73.30812608131089L252.578125,70.01032333452099L253.37239583333331,69.48245062004128L254.16666666666666,69.16753422395624L254.96093750000003,69.90887628683646L255.75520833333331,69.42200042547444L256.5494791666667,74.40746051726921L257.34375,72.5534320163224L258.1380208333333,70.98681327222937L258.9322916666667,71.961881068384L259.7265625,70.63877981707259L260.5208333333333,67.55533159839382L261.3151041666667,64.45069703658271L262.109375,65.67723189260238L262.9036458333333,67.77381591510692L263.6979166666667,70.93433076715718L264.4921875,67.72524361265664L265.2864583333333,65.86485673269686L266.0807291666667,63.90343253265928L266.875,65.34287336546265L267.6692708333333,68.47910400095361L268.4635416666667,68.56645296034213L269.2578125,71.90886422919175L270.0520833333333,70.60753166285133L270.8463541666667,68.90887538974283L271.640625,69.7520018902768L272.4348958333333,69.79402240996501L273.2291666666667,70.28793661329212L274.0234375,69.18305748187407L274.8177083333333,69.91828411196815L275.6119791666667,68.50397714601195L276.40625,68.12340902505656L277.2005208333333,71.15309294607465L277.9947916666667,74.51150310620716L278.7890625,71.650069436293L279.5833333333333,70.45486527119687L280.3776041666667,69.28167704969451L281.171875,67.67342917771629L281.9661458333333,68.53914016116113L282.7604166666667,64.14478824891876L283.5546875,63.320138518867736L284.3489583333333,65.42425566596404L285.1432291666667,67.61754290085253L285.9375,70.36423142811407L286.7317708333333,66.4985776813241L287.5260416666667,64.70758467736346L288.3203125,64.95395766365988L289.11458333333337,61.67743120988132L289.90885416666663,64.84109958053097L290.703125,70.01487117938518L291.49739583333337,67.19569536897922L292.29166666666663,69.63370808219844L293.0859375,66.52721673732515L293.88020833333337,66.4891913546657L294.67447916666663,66.9141489179014L295.46875,65.83049727479846L296.26302083333337,67.41480975395768L297.05729166666663,67.02018671618379L297.8515625,66.3374494040653L298.64583333333337,65.9308255597548L299.44010416666663,66.57668366064382L300.234375,66.51885219336452L301.02864583333337,64.28480775098427L301.82291666666663,62.12963045394997L302.6171875,62.53987409917096L303.41145833333337,66.26512845643117L304.20572916666663,62.85081852176802L305,63.40111596776558L305.79427083333337,60.37020352562553L306.58854166666663,64.45269318805845L307.3828125,67.46658908291516L308.1770833333333,71.21637831878866L308.9713541666667,72.5848688626798L309.765625,71.00527662356211L310.5598958333333,72.94159504657125L311.3541666666667,72.17305319443568L312.1484375,71.71574978550956L312.9427083333333,69.0925431018436L313.7369791666667,69.86341713088382L314.53125,72.72051270330388L315.3255208333333,70.61112987790534L316.1197916666667,70.30858984776324L316.9140625,68.27452567731143L317.7083333333333,64.42803858160414L318.5026041666667,64.78554064853245L319.296875,66.7724401149128L320.0911458333333,64.43230655637893L320.8854166666667,64.78811386894108L321.6796875,63.70115586074553L322.4739583333333,62.63163208095585L323.2682291666667,63.69721204902652L324.0625,63.481678995609684L324.8567708333333,64.21350605981422L325.6510416666667,64.2218438153073L326.4453125,62.51479783358059L327.2395833333333,64.49013637509933L328.0338541666667,68.40090987711397L328.828125,69.44329430475545L329.6223958333333,68.68265056681736L330.4166666666667,66.87095339448496L331.2109375,65.36387026877367L332.0052083333333,64.04100252302226L332.7994791666667,64.98817842758609L333.59375,69.17734118196137L334.3880208333333,68.98509793303248L335.1822916666667,67.9532878106603L335.9765625,65.99818329161212L336.7708333333333,73.65293946093391L337.5651041666667,69.73976800190786L338.359375,69.78667764230846L339.1536458333333,67.06383671742276L339.9479166666667,65.91896089386972L340.7421875,65.6808293231478L341.5364583333333,65.98045408218508L342.3307291666667,64.8390929824647L343.125,65.91394054883972L343.9192708333333,65.23750021288294L344.7135416666667,63.53626557973354L345.5078125,65.11800620490862L346.3020833333333,62.191550628757L347.0963541666667,64.29074608395024L347.890625,66.02199138036144L348.68489583333337,67.08062287870729L349.47916666666663,68.63700987245159L350.2734375,66.8442311973863L351.06770833333337,62.75628494831881L351.86197916666663,63.77306901184102L352.65625,67.94638661879452L353.45052083333337,74.94418872322308L354.24479166666663,70.94450945913167L355.0390625,63.324280435085996L355.83333333333337,62.83221494972071L356.62760416666663,65.56227025014118L357.421875,68.15819275391101L358.21614583333337,70.70048560758016L359.01041666666663,70.36197037911569L359.8046875,69.22680708718536L360.59895833333337,69.47827637814828L361.39322916666663,74.44358683744059L362.1875,71.61086544594366L362.98177083333337,67.658001192624L363.77604166666663,64.50973757531625L364.5703125,62.68343843707038L365.36458333333337,63.728744688295706L366.15885416666663,64.3631273632202L366.953125,60.92259393228716L367.7473958333333,60.15188042587056L368.5416666666667,58.88343380000288L369.3359375,60.564198591434774L370.1302083333333,60.34853657091787L370.9244791666667,63.14751519815712L371.71875,69.84918279322147L372.5130208333333,75.18224052414968L373.3072916666667,75.99273658940575L374.1015625,75.46746381391631L374.8958333333333,73.66236288720671L375.6901041666667,69.27987089159978L376.484375,65.43775283013866L377.2786458333333,65.39265898614565L378.0729166666667,64.05796679178371L378.8671875,65.43738608298582L379.6614583333333,65.83369609630103L380.4557291666667,66.96595210304486L381.25,65.41969970144919L382.0442708333333,66.26688227852605L382.8385416666667,69.05627788835238L383.6328125,68.4525822225267L384.4270833333333,66.73618061930915L385.2213541666667,63.54808058643687L386.015625,65.12524893609714L386.8098958333333,64.33266347562898L387.6041666666667,63.43155020276674L388.3984375,63.75162129340532L389.1927083333333,62.238766665585274L389.9869791666667,62.18332023172644L390.78125,60.89783225502839L391.5755208333333,62.63691200361984L392.3697916666667,63.2717348626673L393.1640625,66.72618820459383L393.9583333333333,66.16253709668086L394.7526041666667,65.38519275518138L395.546875,64.4868489734298L396.3411458333333,68.85853624331588L397.1354166666667,63.035693297354044L397.9296875,63.08521413961222L398.7239583333333,67.963024599672L399.5182291666667,63.38921585285004L400.3125,65.46689603572878L401.1067708333333,68.09889995995866L401.9010416666667,70.66365436977452L402.6953125,71.28707239447954L403.4895833333333,69.30653918770321L404.2838541666667,67.2355454873072L405.078125,63.40511683309552L405.8723958333333,58.74682627928877L406.6666666666667,62.145165413087625L407.4609375,62.97373958542005L408.25520833333337,63.04801064701354L409.04947916666663,59.758022095736465L409.84375,62.778921308712256L410.63802083333337,62.93093987942973L411.43229166666663,60.92253052104735L412.2265625,62.22943664129042L413.02083333333337,68.78243671580094L413.81510416666663,67.37994726173156L414.609375,69.747927111379L415.40364583333337,71.20615772337175L416.19791666666663,67.42759750925325L416.9921875,67.47901961428477L417.78645833333337,67.96406222551059L418.58072916666663,65.56219960447487L419.375,60.363687127160915L420.16927083333337,60.63980215624747L420.96354166666663,62.47828624362694L421.7578125,64.03446019062358L422.55208333333337,63.2546590793296L423.34635416666663,63.21660387045239L424.140625,63.193780183479475L424.93489583333337,67.12620716627606L425.72916666666663,67.29791109370183L426.5234375,66.50241956967034L427.3177083333333,65.14700698831393L428.1119791666667,58.912621430015065L428.90625,60.58211420174956L429.7005208333333,61.60228937396192L430.4947916666667,67.00889282272686L431.2890625,65.88649828449041L432.0833333333333,67.44913621146065L432.8776041666667,64.82486426819548L433.671875,64.58809077737209L434.4661458333333,71.74570272749185L435.2604166666667,67.73464407616467L436.0546875,61.9892521066223L436.8489583333333,62.03362271127173L437.6432291666667,63.33259732778782L438.4375,74.80789069771953L439.2317708333333,72.78745080802508L440.0260416666667,68.32474078910917L440.8203125,66.66121642315585L441.6145833333333,65.240505580839L442.4088541666667,64.83639267945318L443.203125,65.47056694416796L443.9973958333333,66.29775166289875L444.7916666666667,74.34740944497901L445.5859375,74.48286444297202L446.3802083333333,68.35559614962415L447.1744791666667,70.35092566264893L447.96875,69.6851621748479L448.7630208333333,66.55680923500569L449.5572916666667,63.01775468651351L450.3515625,64.79971044381517L451.1458333333333,65.88996100714058L451.9401041666667,68.82116578172082L452.734375,72.55196666934489L453.5286458333333,71.4621538113588L454.3229166666667,68.02796702327333L455.1171875,63.42582717905219L455.9114583333333,64.61368155196698L456.7057291666667,68.93926616798194L457.5,70.23882369383995L458.2942708333333,67.77796464547913L459.0885416666667,65.01507346712879L459.8828125,62.978790046023335L460.6770833333333,64.34077373939482L461.4713541666667,63.00919621352688L462.265625,64.79444943594035L463.0598958333333,62.42616472923993L463.8541666666667,59.80725044337453L464.6484375,57.881141407346604L465.4427083333333,59.539876533874235L466.2369791666667,63.495008465434125L467.03125,70.07736346471648L467.82552083333337,66.78208487356375L468.61979166666663,67.99672182518464L469.4140625,68.73524077144901L470.20833333333337,71.5350177886969L471.00260416666663,68.06968412494268L471.796875,66.95953036117209L472.59114583333337,67.197626279583L473.38541666666663,65.9979665815278L474.1796875,64.41402394418981L474.97395833333337,61.7848005033556L475.76822916666663,62.75486312075054L476.5625,59.997398345537874L477.35677083333337,63.78434187292066L478.1510416666667,65.26998529336282L478.94531249999994,66.62197027755559L479.7395833333333,62.63004899934208L480.53385416666663,67.21852231933241L481.328125,66.45528788886907L482.12239583333337,69.17362978800281L482.9166666666667,65.81839894825436L483.71093749999994,63.446571041810955L484.5052083333333,65.0630077828888L485.29947916666663,66.94335084101499L486.09375,64.53159644610486L486.88802083333337,61.43474922722385L487.6822916666667,60.8681011156624L488.47656249999994,59.304982332975214L489.2708333333333,62.91956685383599L490.0651041666667,64.30457068112344L490.859375,61.72141263207419L491.65364583333337,67.53734646248336L492.44791666666674,67.54489536792357L493.24218749999994,69.3841673863219L494.0364583333333,67.73357733276583L494.8307291666667,65.42825966726838L495.625,65.82819055536868L496.41927083333337,64.74910220352302L497.21354166666663,65.85913890898718L498.00781249999994,65.20491503909454L498.8020833333333,65.69337278094451L499.5963541666667,64.2350048834503L500.390625,63.373652228407934L501.18489583333337,61.18068605479368L501.97916666666663,61.547126094350574L502.77343749999994,63.03512149683536L503.5677083333333,63.51247224346025L504.3619791666667,65.10341925882187L505.15625,66.96822235402817L505.95052083333337,67.65513440484875L506.74479166666663,67.16351626795557L507.5390625,65.53571030392925L508.3333333333333,58.723713410487164L509.1276041666667,64.70019765723646L509.92187500000006,63.64916652438205L510.71614583333337,67.4141026795524L511.51041666666663,68.38159492095821L512.3046875,69.43153947716735L513.0989583333334,68.67566993734852L513.8932291666666,65.09305831247877L514.6875,63.02429448013078L515.4817708333334,59.33808763959769L516.2760416666666,56.42865794869732L517.0703125,59.047645660983164L517.8645833333334,63.611161176632436L518.6588541666667,63.430187316508864L519.453125,62.471275254160105L520.2473958333333,60.653805294959454L521.0416666666666,62.48690026403534L521.8359375,66.6780213092917L522.6302083333334,68.39002684211312L523.4244791666667,66.2530447376792L524.21875,61.998827666673776L525.0130208333333,59.15419722164614L525.8072916666666,57.49872461596999L526.6015625,57.30719132038138L527.3958333333334,58.783859533704856L528.1901041666667,62.59072937271412L528.984375,69.01919179653572L529.7786458333333,67.51922764302924L530.5729166666666,67.08248471332041L531.3671875,65.92997647273643L532.1614583333334,63.94147018202386L532.9557291666667,61.510845622679994L533.75,60.913399412532556L534.5442708333333,65.23441918835186L535.3385416666666,63.534459176734174L536.1328125,62.11104195133447L536.9270833333334,59.62462000072367L537.7213541666667,56.20443084175491L538.515625,57.709425485631755L539.3098958333333,59.43445187140213L540.1041666666666,60.48920817819413L540.8984375,60.30366475336348L541.6927083333334,62.6942111786434L542.4869791666667,63.73530057255607L543.28125,63.50446293566313L544.0755208333333,66.42493934258465L544.8697916666666,64.66445460105359L545.6640625,63.199751465145766L546.4583333333334,64.47574722854455L547.2526041666667,60.98705962784294L548.046875,59.78136384324722L548.8411458333333,61.11409856199657L549.6354166666666,64.48775491981979L550.4296875,64.38628915217731L551.2239583333334,61.76874215359692L552.0182291666667,67.56807503485209L552.8125,65.33197425173017L553.6067708333333,66.21362536016693L554.4010416666666,62.82131264072967L555.1953125,64.24448304617357L555.9895833333334,62.95244210979513L556.7838541666666,65.19702479772263L557.578125,68.8473925079395L558.3723958333334,71.60489706166834L559.1666666666666,65.42052218546911L559.9609375,65.38232644564124L560.7552083333334,64.92098652847608L561.5494791666666,69.59899712449675L562.34375,70.1700720045381L563.1380208333334,69.11336929686598L563.9322916666666,65.34288554295426L564.7265625,64.89746726955258L565.5208333333334,66.84141303687466L566.3151041666666,64.0391884628894L567.109375,63.25746611571549L567.9036458333334,62.792386103509386L568.6979166666666,62.51474181832066L569.4921875,61.927742253570614L570.2864583333334,57.9111072434892L571.0807291666666,59.152961812536034L571.875,60.72953281582852L572.6692708333334,66.4441539322383L573.4635416666666,67.33730053512312L574.2578125,66.9739199755619L575.0520833333334,66.30994209868061L575.8463541666666,63.731747344195014L576.640625,63.07479492419429L577.4348958333334,61.422151792651505L578.2291666666667,60.86060034722209L579.0234375,59.30057632421028L579.8177083333333,57.981300356595796L580.6119791666666,58.79246645313697L581.40625,63.44816082040825L582.2005208333334,64.62729888910133L582.9947916666667,65.7849226924805L583.7890625,68.29649947658714L584.5833333333333,68.9167749616895L585.3776041666666,68.36953216465366L586.171875,66.68748750518552L586.9661458333334,67.4849867422264L587.7604166666667,70.28164642306695L588.5546875,67.80281062130717L589.3489583333333,69.07873928327876L590.1432291666666,68.92607520873679L590.9375,66.56499755884113L591.7317708333334,60.09923913159349L592.5260416666667,57.25956858325043L593.3203125,55.99309128738014L594.1145833333333,54.10255945676795L594.9088541666666,56.02674298288173L595.703125,58.79750590095398L596.4973958333334,59.28653488002277L597.2916666666667,62.907940860143015L598.0859375,66.0519764190966L598.8802083333333,67.55050885912289L599.6744791666666,62.30768880325536L600.46875,61.80442688775264L601.2630208333334,66.69022537360286L602.0572916666667,63.95182583539281L602.8515625,64.06470631831212L603.6458333333333,63.27261405260714L604.4401041666666,58.271702984635795L605.234375,60.59913961445375L606.0286458333334,58.743826376710444L606.8229166666667,61.306167522191686L607.6171875,64.17434641220547L608.4114583333333,64.19834286642657L609.2057291666666,62.079235841458L610,62.93372708571712L610.7942708333334,59.69242703632989L611.5885416666667,60.64611909884616L612.3828125,62.48217218425259L613.1770833333333,63.17804809442805L613.9713541666666,63.17065146510316L614.765625,62.3174583791469L615.5598958333334,62.653143235454195L616.3541666666666,59.9385929023332L617.1484375,57.166785053165825L617.9427083333334,58.69787722169974L618.7369791666666,58.42157384473626L619.53125,59.87105408556522L620.3255208333334,55.95743703455554L621.1197916666666,59.97032576865166L621.9140625,59.58498531659791L622.7083333333334,59.35474544793169L623.5026041666666,62.526561636282736L624.296875,68.05914276986584L625.0911458333334,68.77306460493281L625.8854166666666,66.03093785962557L626.6796875,63.14204227769466L627.4739583333334,61.87984711852272L628.2682291666666,59.4904213129941L629.0625,57.300582316673285L629.8567708333334,57.58315316232432L630.6510416666666,60.17198212115619L631.4453125,63.03742792939795L632.2395833333334,64.81180295609283L633.0338541666666,64.14644875886194L633.828125,59.97640225641834L634.6223958333334,59.183143011043626L635.4166666666666,59.92654935610295L636.2109375,59.15354776002931L637.0052083333334,60.72989199357096L637.7994791666667,59.6294610270391L638.59375,63.12388433945699L639.3880208333333,65.74374732176119L640.1822916666666,66.91113333516626L640.9765625,66.71918198424129L641.7708333333334,65.27461467741404L642.5651041666667,65.73546305427931L643.359375,66.45837141466484L644.1536458333333,61.695451857245644L644.9479166666666,58.5767839966112L645.7421875,58.75005562680201L646.5364583333334,60.482295056679845L647.3307291666667,62.80487552738663L648.125,66.8798232809716L648.9192708333333,62.77648463449026L649.7135416666666,61.246992158823616L650.5078125,61.1705062303418L651.3020833333334,63.23027761114889L652.0963541666667,64.49438161966981L652.890625,66.59282977063913L653.6848958333333,62.19105940005056L654.4791666666666,62.57693128632968L655.2734375,61.546019532242724L656.0677083333334,60.521403389432066L656.8619791666667,60.32293156651457L657.65625,60.615254234950214L658.4505208333333,59.969242272261965L659.2447916666666,62.065054302176804L660.0390625,65.0836464428616L660.8333333333334,64.307966427807L661.6276041666667,62.143123909260055L662.421875,59.64322823073854L663.2161458333333,57.3895409738966L664.0104166666666,63.82925816892481L664.8046875,62.70735802158225L665.5989583333334,60.379777081576606L666.3932291666667,59.8290995551406L667.1875,61.55969981103283L667.9817708333333,61.35777648700798L668.7760416666666,64.20653770463082L669.5703125,64.65191344560503L670.3645833333334,65.3588666185068L671.1588541666667,64.47124372424929L671.953125,61.817922512578036L672.7473958333333,59.0497138212948L673.5416666666666,59.845650496313226L674.3359375,60.73921381037718L675.1302083333334,62.11742244347573L675.9244791666666,64.24497393081361L676.71875,65.55165605374498L677.5130208333334,65.46093791801377L678.3072916666666,65.84790256884497L679.1015625,67.87912967610004L679.8958333333334,66.8468491901861L680.6901041666666,65.34969983570966L681.484375,65.33984689889587L682.2786458333334,63.596253609966766L683.0729166666666,62.99419083775973L683.8671875,63.91770602328387L684.6614583333334,66.23628714691381L685.4557291666666,67.66331450074199L686.25,69.92337630554147L687.0442708333334,65.36245666549235L687.8385416666666,65.34749970720515L688.6328125,62.32379337782481L689.4270833333334,57.73829133457076L690.2213541666666,58.244630869006244L691.015625,56.963757920023L691.8098958333334,57.77573002588912L692.6041666666666,59.07032413918398L693.3984375,58.64397829937991L694.1927083333334,57.198971591331144L694.9869791666666,60.34261922201165L695.78125,60.21589769773726L696.5755208333334,57.326892797328014L697.3697916666667,57.59899903068697L698.1640625,58.96235401257837L698.9583333333333,63.987060982841626L699.7526041666666,60.29536280779797L700.546875,58.565943983343516L701.3411458333334,59.55185437624175L702.1354166666667,59.74123538289143L702.9296875,60.26429785095513L703.7239583333333,61.4087754129132L704.5182291666666,59.21643748284163L705.3125,62.86375410443861L706.1067708333334,64.70500820357927L706.9010416666667,66.27618653511757L707.6953125,63.2834295217321L708.4895833333333,62.38432471328804L709.2838541666666,65.28306390687732L710.078125,67.0787222996538L710.8723958333334,64.17616302198024L711.6666666666667,62.488014117794705L712.4609375,60.66360325270085L713.2552083333333,58.38047470132511L714.0494791666666,56.26243925892521L714.84375,55.78850961855176L715.6380208333334,62.35353884118075L716.4322916666667,62.252110213213086L717.2265625,61.3536638280151L718.0208333333333,62.91661386848688L718.8151041666666,63.4408823288569L719.609375,59.57554470617151L720.4036458333334,61.821766100811146L721.1979166666667,62.77733444136243L721.9921875,58.79371995473076L722.7864583333333,59.284248150087706L723.5807291666666,57.574992296704295L724.375,54.26316171140468L725.1692708333334,58.091150948911036L725.9635416666667,60.48727679346115L726.7578125,62.38441954842767L727.5520833333333,63.54662325016699L728.3463541666666,64.25285504384783L729.140625,62.11101022897088L729.9348958333334,59.62460159938081L730.7291666666667,61.434015371060525L731.5234375,62.11938691613835L732.3177083333333,63.3849599536602L733.1119791666666,59.54370226129612L733.90625,60.14486957720152L734.7005208333334,61.33597276295109L735.4947916666666,63.33233041730546L736.2890625,58.70582322041912L737.0833333333334,58.4263234816388L737.8776041666666,63.213924066501534L738.671875,63.620399690397676L739.4661458333334,63.86536665782984L740.2604166666666,63.15422506957793L741.0546875,62.3077156577051L741.8489583333334,63.499859130850155L742.6432291666666,61.25416156940264L743.4375,57.924090807251616L744.2317708333334,58.356823821681246L745.0260416666666,59.424619955238825L745.8203125,59.258784692893585L746.6145833333334,57.56006377324286L747.4088541666666,58.1369047526444L748.203125,58.48519130671917L748.9973958333334,58.69495686454519L749.7916666666666,59.630278739064295L750.5859375,58.17542978923177L751.3802083333334,60.128780204415705L752.1744791666666,64.29948808169746L752.96875,66.47245174424307L753.7630208333334,65.56903113159649L754.5572916666666,65.47134963438799L755.3515625,64.10432276639295L756.1458333333334,68.15655791118746L756.9401041666667,66.562514649614L757.734375,69.7053781191616L758.5286458333333,69.30063861698477L759.3229166666666,65.89118243866488L760.1171875,69.28429542739269L760.9114583333334,69.51288202275595L761.7057291666667,70.58859074147927L762.5,66.18020264271081L763.2942708333333,62.80216020680069L764.0885416666666,62.94491115954958L764.8828125,62.60587438544587L765.6770833333334,65.42125375818927L766.4713541666667,62.789692128002685L767.265625,63.364158900162465L768.0598958333333,62.01077067790425L768.8541666666666,60.38389054473021L769.6484375,64.02824128226717L770.4427083333334,67.20098943391002L771.2369791666667,64.68108794205426L772.03125,61.10449190651809L772.8255208333333,59.850656055220895L773.6197916666666,57.51017447757607L774.4140625,58.10673167956725L775.2083333333334,59.678232931981825L776.0026041666667,57.80570240607466L776.796875,55.926810674920034L777.5911458333333,58.33442202513851L778.3854166666666,61.051557340697855L779.1796875,61.88752868613096L779.9739583333334,59.08992833024911L780.7682291666667,57.461013895560995L781.5625,54.95742692686861L782.3567708333333,55.77585864625877L783.1510416666666,53.97544642857139L783.9453125,54.41658416975383L784.7395833333334,57.000924675982276L785.5338541666667,58.1961680185392L786.328125,56.154935234383515L787.1223958333333,58.07636084779847L787.9166666666666,62.56506226086714L788.7109375,61.538996910186256L789.5052083333334,59.69832212127119L790.2994791666667,60.238363320872054L791.09375,57.73527136618969L791.8880208333333,58.64311555054172L792.6822916666666,63.78182973622114L793.4765625,70.73697665316439L794.2708333333334,68.06662031381211L795.0651041666666,65.181749654094L795.859375,61.390227317503104L796.6536458333334,58.00208905963535L797.4479166666666,56.820646122633605L798.2421875,56.90065134765848L799.0364583333334,59.34074125393823L799.8307291666666,56.04170142481797L800.625,60.43384588710131L801.4192708333334,60.68204757580128L802.2135416666666,63.3551985057797L803.0078125,65.00695380746401L803.8020833333334,63.83045687154129L804.5963541666666,63.99174921309367L805.390625,63.657743043149935L806.1848958333334,61.76359675611775L806.9791666666666,59.422876171437906L807.7734375,58.45263004023218L808.5677083333334,59.07803716085243L809.3619791666666,56.27856138584764L810.15625,57.754813541630426L810.9505208333334,57.4603383988329L811.7447916666666,57.67933389183327L812.5390625,59.011445426419414L813.3333333333334,59.0111592962939L814.1276041666666,58.608678652163576L814.921875,57.57274818543675L815.7161458333334,60.98968395205242L816.5104166666667,59.37637518621125L817.3046875,59.22989916355624L818.0989583333333,60.77668488711663L818.8932291666666,61.30325062336237L819.6875,62.885712842692385L820.4817708333334,65.595577047598L821.2760416666667,62.890563191380124L822.0703125,65.15874194620443L822.8645833333333,67.00226255829972L823.6588541666666,66.32679365443647L824.453125,65.92446713883834L825.2473958333334,61.81257017607015L826.0416666666667,59.45133672625445L826.8359375,59.68075300832891L827.6302083333333,59.818746711294864L828.4244791666666,60.31112648298574L829.21875,58.97730765650408L830.0130208333334,57.3948992518641L830.8072916666667,56.07287473136125L831.6015625,57.23398708601633L832.3958333333333,61.190957598640864L833.1901041666666,61.13691528440546L833.984375,59.86977984461555L834.7786458333334,58.31622428103344L835.5729166666667,56.61443562160247L836.3671875,55.99814960458207L837.1614583333333,57.18843027529289L837.9557291666666,57.911946580039796L838.75,59.5587792673727L839.5442708333334,58.934968940592285L840.3385416666667,55.4234039792467L841.1328125,54.90465087531146L841.9270833333333,56.130748782535306L842.7213541666666,57.26925809090142L843.515625,57.56428475638461L844.3098958333334,54.63617846045719L845.1041666666667,55.58078770130169L845.8984375,58.921173494384334L846.6927083333333,59.767661202875956L847.4869791666666,60.69183898275094L848.28125,58.396897506474374L849.0755208333334,60.67664384511471L849.8697916666667,59.1924609053973L850.6640625,59.932196690871194L851.4583333333333,59.96979298415084L852.2526041666666,57.18481179913158L853.046875,59.11177864997711L853.8411458333334,57.47383641937091L854.6354166666666,60.51461247799244L855.4296875,61.98003377387374L856.2239583333334,59.95608949479498L857.0182291666666,61.6376800918365L857.8125,62.2426613498136L858.6067708333334,61.34806312854806L859.4010416666666,59.5865304470895L860.1953125,58.95147790035952L860.9895833333334,56.20543252604028L861.7838541666666,54.60566201797309L862.578125,56.336191076358205L863.3723958333334,57.790086343620885L864.1666666666666,59.48398527358569L864.9609375,61.76511508532349L865.7552083333334,59.423758656771895L866.5494791666666,60.07229001569459L867.34375,59.64582750006849L868.1380208333334,58.584567930230605L868.9322916666666,55.60693005717735L869.7265625,60.15665022784606L870.5208333333334,62.18068969285713L871.3151041666666,60.07315193803419L872.109375,60.877297656193605" style="fill: none;" fill="none"></path></g></g></g></g><g opacity="0.20000000298023224"><g><g><g><path stroke="rgb(0, 119, 187)" stroke-width="2px" d="M79.42708333333333,180.59054334674198L87.36979166666666,135.01553478344562L95.3125,99.7083221917324L103.25520833333334,119.7286725328097L111.19791666666667,97.97595232189002L119.140625,111.05722495661291L127.08333333333333,85.41413362264592L135.02604166666666,97.97595232189002L142.96875,89.87745027541695L150.91145833333331,97.97595232189002L158.85416666666666,81.20600269922016L166.796875,89.87745027541695L174.73958333333331,73.44913260815366L182.68229166666669,82.5821650457429L190.625,68.6976710231549L198.56770833333334,72.23221068244811L206.51041666666669,75.94504354806838L214.453125,72.23221068244811L222.39583333333334,79.85510057104801L230.33854166666666,60.02622344695817L238.28125,69.85709819298108L246.22395833333337,73.44913260815366L254.16666666666666,72.23221068244811L262.109375,75.94504354806838L270.0520833333333,71.03507696514384L277.9947916666667,73.44913260815366L285.9375,72.23221068244811L293.88020833333337,60.02622344695817L301.82291666666663,89.87745027541695L309.765625,74.68651537532895L317.7083333333333,66.43219008008782L325.6510416666667,71.03507696514384L333.59375,66.43219008008782L341.5364583333333,81.20600269922016L349.47916666666663,68.6976710231549L357.421875,60.02622344695817L365.36458333333337,62.10022879845792L373.3072916666667,75.94504354806838L381.25,62.10022879845792L389.1927083333333,67.55622017759362L397.1354166666667,77.22546024084511L405.078125,66.43219008008782L413.02083333333337,66.43219008008782L420.96354166666663,69.85709819298108L428.90625,68.6976710231549L436.8489583333333,67.55622017759362L444.7916666666667,72.23221068244811L452.734375,72.23221068244811L460.6770833333333,62.10022879845792L468.61979166666663,63.15955791427973L476.5625,69.85709819298108L484.5052083333333,79.85510057104801L492.44791666666674,79.85510057104801L500.390625,64.23435221929401L508.3333333333333,56.045680988583115L516.2760416666666,67.55622017759362L524.21875,64.23435221929401L532.1614583333334,66.43219008008782L540.1041666666666,75.94504354806838L548.046875,61.05592612107603L555.9895833333334,75.94504354806838L563.9322916666666,66.43219008008782L571.875,66.43219008008782L579.8177083333333,58.00905341115288L587.7604166666667,73.44913260815366L595.703125,64.23435221929401L603.6458333333333,55.08328684029135L611.5885416666667,58.00905341115288L619.53125,61.05592612107603L627.4739583333334,56.045680988583115L635.4166666666666,61.05592612107603L643.359375,66.43219008008782L651.3020833333334,60.02622344695817L659.2447916666666,64.23435221929401L667.1875,67.55622017759362L675.1302083333334,63.15955791427973L683.0729166666666,66.43219008008782L691.015625,65.32506996566428L698.9583333333333,67.55622017759362L706.9010416666667,71.03507696514384L714.84375,85.41413362264592L722.7864583333333,60.02622344695817L730.7291666666667,64.23435221929401L738.671875,68.6976710231549L746.6145833333334,65.32506996566428L754.5572916666666,69.85709819298108L762.5,57.020822437438596L770.4427083333334,61.05592612107603L778.3854166666666,61.05592612107603L786.328125,63.15955791427973L794.2708333333334,64.23435221929401L802.2135416666666,74.68651537532895L810.15625,58.00905341115288L818.0989583333333,56.045680988583115L826.0416666666667,57.020822437438596L833.984375,64.23435221929401L841.9270833333333,71.03507696514384L849.8697916666667,69.85709819298108L857.8125,67.55622017759362L865.7552083333334,63.15955791427973" style="fill: none;" fill="none"></path></g><g><path stroke="rgb(255, 112, 67)" stroke-width="2px" d="M79.42708333333333,323.85267857142856L80.22135416666667,256.3933612229369L81.015625,175.5111356274631L81.80989583333333,154.33135820362747L82.60416666666667,135.01553478344562L83.3984375,166.29635523860344L84.19270833333333,198.34541868120166L84.98697916666667,119.7286725328097L85.78125,191.9394532947264L86.57552083333333,158.10768400789254L87.36979166666666,111.05722495661291L88.1640625,132.2370042088749L88.95833333333334,140.90845178507166L89.75260416666666,107.07668249823786L90.546875,144.0417800913911L91.34114583333334,135.01553478344562L92.13541666666667,96.28341566189226L92.9296875,122.06607847479862L93.72395833333333,119.7286725328097L94.51822916666667,124.48013411780835L95.3125,107.07668249823786L96.10677083333333,117.46319158974256L96.90104166666667,82.5821650457429L97.6953125,99.7083221917324L98.48958333333333,137.90304620448606L99.28385416666667,93.01077858173642L100.078125,81.20600269922016L100.87239583333333,111.05722495661291L101.66666666666667,97.97595232189002L102.4609375,97.97595232189002L103.25520833333334,86.87204469483135L104.04947916666666,109.04005492080762L104.84375,89.87745027541695L105.63802083333334,105.16431252605292L106.43229166666666,132.2370042088749L107.2265625,119.7286725328097L108.02083333333333,83.98453327379093L108.81510416666667,109.04005492080762L109.609375,109.04005492080762L110.40364583333333,86.87204469483135L111.19791666666667,111.05722495661291L111.9921875,103.30035669397273L112.78645833333333,96.28341566189226L113.58072916666667,113.13123030811272L114.375,89.87745027541695L115.16927083333333,97.97595232189002L115.96354166666667,83.98453327379093L116.7578125,96.28341566189226L117.55208333333334,83.98453327379093L118.34635416666666,94.62891673621942L119.140625,91.42744654675954L119.93489583333333,101.4824346419594L120.72916666666667,64.23435221929401L121.5234375,81.20600269922016L122.31770833333333,86.87204469483135L123.11197916666669,89.87745027541695L123.90625,109.04005492080762L124.70052083333333,89.87745027541695L125.49479166666666,82.5821650457429L126.2890625,86.87204469483135L127.08333333333333,82.5821650457429L127.87760416666666,89.87745027541695L128.671875,81.20600269922016L129.46614583333334,73.44913260815366L130.26041666666666,86.87204469483135L131.0546875,72.23221068244811L131.84895833333334,91.42744654675954L132.64322916666666,77.22546024084511L133.4375,89.87745027541695L134.23177083333334,96.28341566189226L135.02604166666666,85.41413362264592L135.8203125,85.41413362264592L136.61458333333334,75.94504354806838L137.40885416666666,73.44913260815366L138.203125,66.43219008008782L138.99739583333334,72.23221068244811L139.79166666666666,82.5821650457429L140.5859375,81.20600269922016L141.38020833333334,83.98453327379093L142.17447916666666,72.23221068244811L142.96875,85.41413362264592L143.76302083333334,77.22546024084511L144.55729166666669,74.68651537532895L145.3515625,82.5821650457429L146.14583333333331,69.85709819298108L146.94010416666669,73.44913260815366L147.734375,74.68651537532895L148.52864583333331,73.44913260815366L149.32291666666669,68.6976710231549L150.1171875,77.22546024084511L150.91145833333331,75.94504354806838L151.70572916666669,81.20600269922016L152.5,74.68651537532895L153.29427083333331,86.87204469483135L154.08854166666666,73.44913260815366L154.8828125,82.5821650457429L155.67708333333334,68.6976710231549L156.47135416666666,67.55622017759362L157.265625,69.85709819298108L158.05989583333334,71.03507696514384L158.85416666666666,74.68651537532895L159.6484375,68.6976710231549L160.44270833333334,74.68651537532895L161.23697916666666,65.32506996566428L162.03125,67.55622017759362L162.82552083333334,85.41413362264592L163.61979166666666,71.03507696514384L164.4140625,78.52854032743255L165.20833333333334,81.20600269922016L166.00260416666666,82.5821650457429L166.796875,61.05592612107603L167.59114583333334,78.52854032743255L168.38541666666666,85.41413362264592L169.1796875,77.22546024084511L169.97395833333334,71.03507696514384L170.76822916666666,73.44913260815366L171.5625,74.68651537532895L172.35677083333334,67.55622017759362L173.15104166666666,69.85709819298108L173.9453125,67.55622017759362L174.73958333333331,78.52854032743255L175.53385416666669,68.6976710231549L176.328125,73.44913260815366L177.12239583333331,74.68651537532895L177.91666666666669,69.85709819298108L178.7109375,68.6976710231549L179.50520833333331,69.85709819298108L180.29947916666669,78.52854032743255L181.09375,68.6976710231549L181.88802083333331,67.55622017759362L182.68229166666669,79.85510057104801L183.4765625,75.94504354806838L184.27083333333334,83.98453327379093L185.06510416666666,65.32506996566428L185.859375,66.43219008008782L186.65364583333334,71.03507696514384L187.44791666666666,65.32506996566428L188.2421875,77.22546024084511L189.03645833333334,75.94504354806838L189.83072916666666,82.5821650457429L190.625,72.23221068244811L191.41927083333334,66.43219008008782L192.21354166666666,91.42744654675954L193.0078125,79.85510057104801L193.80208333333334,85.41413362264592L194.59635416666666,77.22546024084511L195.390625,67.55622017759362L196.18489583333334,97.97595232189002L196.97916666666666,71.03507696514384L197.7734375,69.85709819298108L198.56770833333334,78.52854032743255L199.36197916666666,63.15955791427973L200.15625,83.98453327379093L200.95052083333334,78.52854032743255L201.74479166666666,88.35941047129381L202.5390625,71.03507696514384L203.33333333333334,77.22546024084511L204.12760416666669,73.44913260815366L204.921875,67.55622017759362L205.71614583333331,66.43219008008782L206.51041666666669,72.23221068244811L207.3046875,61.05592612107603L208.09895833333331,75.94504354806838L208.89322916666669,82.5821650457429L209.6875,75.94504354806838L210.48177083333331,79.85510057104801L211.27604166666669,89.87745027541695L212.0703125,86.87204469483135L212.86458333333331,71.03507696514384L213.65885416666666,67.55622017759362L214.453125,77.22546024084511L215.24739583333334,69.85709819298108L216.04166666666666,74.68651537532895L216.8359375,81.20600269922016L217.63020833333334,71.03507696514384L218.42447916666666,69.85709819298108L219.21875,72.23221068244811L220.01302083333334,58.00905341115288L220.80729166666666,68.6976710231549L221.6015625,66.43219008008782L222.39583333333334,81.20600269922016L223.19010416666666,79.85510057104801L223.984375,56.045680988583115L224.77864583333334,74.68651537532895L225.57291666666666,69.85709819298108L226.3671875,60.02622344695817L227.16145833333334,61.05592612107603L227.95572916666666,68.6976710231549L228.75,66.43219008008782L229.54427083333334,58.00905341115288L230.33854166666666,63.15955791427973L231.1328125,62.10022879845792L231.92708333333334,66.43219008008782L232.72135416666666,73.44913260815366L233.515625,78.52854032743255L234.30989583333331,72.23221068244811L235.10416666666669,74.68651537532895L235.8984375,78.52854032743255L236.69270833333331,83.98453327379093L237.48697916666669,82.5821650457429L238.28125,63.15955791427973L239.07552083333334,67.55622017759362L239.86979166666666,78.52854032743255L240.6640625,63.15955791427973L241.45833333333334,69.85709819298108L242.25260416666666,71.03507696514384L243.046875,81.20600269922016L243.84114583333334,73.44913260815366L244.63541666666666,77.22546024084511L245.4296875,77.22546024084511L246.22395833333337,62.10022879845792L247.01822916666666,66.43219008008782L247.8125,81.20600269922016L248.60677083333331,66.43219008008782L249.40104166666666,74.68651537532895L250.1953125,71.03507696514384L250.98958333333331,67.55622017759362L251.78385416666666,78.52854032743255L252.578125,65.32506996566428L253.37239583333331,68.6976710231549L254.16666666666666,68.6976710231549L254.96093750000003,71.03507696514384L255.75520833333331,68.6976710231549L256.5494791666667,82.5821650457429L257.34375,69.85709819298108L258.1380208333333,68.6976710231549L258.9322916666667,73.44913260815366L259.7265625,68.6976710231549L260.5208333333333,63.15955791427973L261.3151041666667,60.02622344695817L262.109375,67.55622017759362L262.9036458333333,71.03507696514384L263.6979166666667,75.94504354806838L264.4921875,63.15955791427973L265.2864583333333,63.15955791427973L266.0807291666667,61.05592612107603L266.875,67.55622017759362L267.6692708333333,73.44913260815366L268.4635416666667,68.6976710231549L269.2578125,77.22546024084511L270.0520833333333,68.6976710231549L270.8463541666667,66.43219008008782L271.640625,71.03507696514384L272.4348958333333,69.85709819298108L273.2291666666667,71.03507696514384L274.0234375,67.55622017759362L274.8177083333333,71.03507696514384L275.6119791666667,66.43219008008782L276.40625,67.55622017759362L277.2005208333333,75.94504354806838L277.9947916666667,79.85510057104801L278.7890625,67.55622017759362L279.5833333333333,68.6976710231549L280.3776041666667,67.55622017759362L281.171875,65.32506996566428L281.9661458333333,69.85709819298108L282.7604166666667,58.00905341115288L283.5546875,62.10022879845792L284.3489583333333,68.6976710231549L285.1432291666667,71.03507696514384L285.9375,74.68651537532895L286.7317708333333,61.05592612107603L287.5260416666667,62.10022879845792L288.3203125,65.32506996566428L289.11458333333337,57.020822437438596L289.90885416666663,69.85709819298108L290.703125,78.52854032743255L291.49739583333337,63.15955791427973L292.29166666666663,73.44913260815366L293.0859375,62.10022879845792L293.88020833333337,66.43219008008782L294.67447916666663,67.55622017759362L295.46875,64.23435221929401L296.26302083333337,69.85709819298108L297.05729166666663,66.43219008008782L297.8515625,65.32506996566428L298.64583333333337,65.32506996566428L299.44010416666663,67.55622017759362L300.234375,66.43219008008782L301.02864583333337,61.05592612107603L301.82291666666663,59.01073010319067L302.6171875,63.15955791427973L303.41145833333337,72.23221068244811L304.20572916666663,58.00905341115288L305,64.23435221929401L305.79427083333337,56.045680988583115L306.58854166666663,71.03507696514384L307.3828125,72.23221068244811L308.1770833333333,77.22546024084511L308.9713541666667,74.68651537532895L309.765625,68.6976710231549L310.5598958333333,75.94504354806838L311.3541666666667,71.03507696514384L312.1484375,71.03507696514384L312.9427083333333,65.32506996566428L313.7369791666667,71.03507696514384L314.53125,77.22546024084511L315.3255208333333,67.55622017759362L316.1197916666667,69.85709819298108L316.9140625,65.32506996566428L317.7083333333333,59.01073010319067L318.5026041666667,65.32506996566428L319.296875,69.85709819298108L320.0911458333333,61.05592612107603L320.8854166666667,65.32506996566428L321.6796875,62.10022879845792L322.4739583333333,61.05592612107603L323.2682291666667,65.32506996566428L324.0625,63.15955791427973L324.8567708333333,65.32506996566428L325.6510416666667,64.23435221929401L326.4453125,60.02622344695817L327.2395833333333,67.55622017759362L328.0338541666667,74.68651537532895L328.828125,71.03507696514384L329.6223958333333,67.55622017759362L330.4166666666667,64.23435221929401L331.2109375,63.15955791427973L332.0052083333333,62.10022879845792L332.7994791666667,66.43219008008782L333.59375,75.94504354806838L334.3880208333333,68.6976710231549L335.1822916666667,66.43219008008782L335.9765625,63.15955791427973L336.7708333333333,86.87204469483135L337.5651041666667,64.23435221929401L338.359375,69.85709819298108L339.1536458333333,63.15955791427973L339.9479166666667,64.23435221929401L340.7421875,65.32506996566428L341.5364583333333,66.43219008008782L342.3307291666667,63.15955791427973L343.125,67.55622017759362L343.9192708333333,64.23435221929401L344.7135416666667,61.05592612107603L345.5078125,67.55622017759362L346.3020833333333,58.00905341115288L347.0963541666667,67.55622017759362L347.890625,68.6976710231549L348.68489583333337,68.6976710231549L349.47916666666663,71.03507696514384L350.2734375,64.23435221929401L351.06770833333337,57.020822437438596L351.86197916666663,65.32506996566428L352.65625,74.68651537532895L353.45052083333337,86.87204469483135L354.24479166666663,65.32506996566428L355.0390625,53.195431559044664L355.83333333333337,62.10022879845792L356.62760416666663,69.85709819298108L357.421875,72.23221068244811L358.21614583333337,74.68651537532895L359.01041666666663,69.85709819298108L359.8046875,67.55622017759362L360.59895833333337,69.85709819298108L361.39322916666663,82.5821650457429L362.1875,67.55622017759362L362.98177083333337,62.10022879845792L363.77604166666663,60.02622344695817L364.5703125,60.02622344695817L365.36458333333337,65.32506996566428L366.15885416666663,65.32506996566428L366.953125,56.045680988583115L367.7473958333333,59.01073010319067L368.5416666666667,57.020822437438596L369.3359375,63.15955791427973L370.1302083333333,60.02622344695817L370.9244791666667,67.55622017759362L371.71875,81.20600269922016L372.5130208333333,83.98453327379093L373.3072916666667,77.22546024084511L374.1015625,74.68651537532895L374.8958333333333,71.03507696514384L375.6901041666667,63.15955791427973L376.484375,60.02622344695817L377.2786458333333,65.32506996566428L378.0729166666667,62.10022879845792L378.8671875,67.55622017759362L379.6614583333333,66.43219008008782L380.4557291666667,68.6976710231549L381.25,63.15955791427973L382.0442708333333,67.55622017759362L382.8385416666667,73.44913260815366L383.6328125,67.55622017759362L384.4270833333333,64.23435221929401L385.2213541666667,59.01073010319067L386.015625,67.55622017759362L386.8098958333333,63.15955791427973L387.6041666666667,62.10022879845792L388.3984375,64.23435221929401L389.1927083333333,60.02622344695817L389.9869791666667,62.10022879845792L390.78125,59.01073010319067L391.5755208333333,65.32506996566428L392.3697916666667,64.23435221929401L393.1640625,72.23221068244811L393.9583333333333,65.32506996566428L394.7526041666667,64.23435221929401L395.546875,63.15955791427973L396.3411458333333,75.94504354806838L397.1354166666667,55.08328684029135L397.9296875,63.15955791427973L398.7239583333333,75.94504354806838L399.5182291666667,57.020822437438596L400.3125,68.6976710231549L401.1067708333333,72.23221068244811L401.9010416666667,74.68651537532895L402.6953125,72.23221068244811L403.4895833333333,66.43219008008782L404.2838541666667,64.23435221929401L405.078125,58.00905341115288L405.8723958333333,52.26935518431799L406.6666666666667,67.55622017759362L407.4609375,64.23435221929401L408.25520833333337,63.15955791427973L409.04947916666663,55.08328684029135L409.84375,67.55622017759362L410.63802083333337,63.15955791427973L411.43229166666663,58.00905341115288L412.2265625,64.23435221929401L413.02083333333337,79.85510057104801L413.81510416666663,65.32506996566428L414.609375,73.44913260815366L415.40364583333337,73.44913260815366L416.19791666666663,62.10022879845792L416.9921875,67.55622017759362L417.78645833333337,68.6976710231549L418.58072916666663,62.10022879845792L419.375,53.195431559044664L420.16927083333337,61.05592612107603L420.96354166666663,65.32506996566428L421.7578125,66.43219008008782L422.55208333333337,62.10022879845792L423.34635416666663,63.15955791427973L424.140625,63.15955791427973L424.93489583333337,73.44913260815366L425.72916666666663,67.55622017759362L426.5234375,65.32506996566428L427.3177083333333,63.15955791427973L428.1119791666667,50.45143313230466L428.90625,63.15955791427973L429.7005208333333,63.15955791427973L430.4947916666667,75.94504354806838L431.2890625,64.23435221929401L432.0833333333333,69.85709819298108L432.8776041666667,61.05592612107603L433.671875,64.23435221929401L434.4661458333333,83.98453327379093L435.2604166666667,62.10022879845792L436.0546875,54.13331101639818L436.8489583333333,62.10022879845792L437.6432291666667,65.32506996566428L438.4375,96.28341566189226L439.2317708333333,69.85709819298108L440.0260416666667,62.10022879845792L440.8203125,64.23435221929401L441.6145833333333,63.15955791427973L442.4088541666667,64.23435221929401L443.203125,66.43219008008782L443.9973958333333,67.55622017759362L444.7916666666667,88.35941047129381L445.5859375,74.68651537532895L446.3802083333333,60.02622344695817L447.1744791666667,73.44913260815366L447.96875,68.6976710231549L448.7630208333333,62.10022879845792L449.5572916666667,58.00905341115288L450.3515625,67.55622017759362L451.1458333333333,67.55622017759362L451.9401041666667,73.44913260815366L452.734375,78.52854032743255L453.5286458333333,69.85709819298108L454.3229166666667,63.15955791427973L455.1171875,57.020822437438596L455.9114583333333,66.43219008008782L456.7057291666667,75.94504354806838L457.5,72.23221068244811L458.2942708333333,64.23435221929401L459.0885416666667,61.05592612107603L459.8828125,60.02622344695817L460.6770833333333,66.43219008008782L461.4713541666667,61.05592612107603L462.265625,67.55622017759362L463.0598958333333,59.01073010319067L463.8541666666667,56.045680988583115L464.6484375,55.08328684029135L465.4427083333333,62.10022879845792L466.2369791666667,69.85709819298108L467.03125,81.20600269922016L467.82552083333337,62.10022879845792L468.61979166666663,69.85709819298108L469.4140625,69.85709819298108L470.20833333333337,75.94504354806838L471.00260416666663,63.15955791427973L471.796875,65.32506996566428L472.59114583333337,67.55622017759362L473.38541666666663,64.23435221929401L474.1796875,62.10022879845792L474.97395833333337,58.00905341115288L475.76822916666663,64.23435221929401L476.5625,56.045680988583115L477.35677083333337,69.85709819298108L478.1510416666667,67.55622017759362L478.94531249999994,68.6976710231549L479.7395833333333,57.020822437438596L480.53385416666663,74.68651537532895L481.328125,65.32506996566428L482.12239583333337,73.44913260815366L482.9166666666667,61.05592612107603L483.71093749999994,60.02622344695817L484.5052083333333,67.55622017759362L485.29947916666663,69.85709819298108L486.09375,61.05592612107603L486.88802083333337,57.020822437438596L487.6822916666667,60.02622344695817L488.47656249999994,57.020822437438596L489.2708333333333,68.6976710231549L490.0651041666667,66.43219008008782L490.859375,58.00905341115288L491.65364583333337,77.22546024084511L492.44791666666674,67.55622017759362L493.24218749999994,72.23221068244811L494.0364583333333,65.32506996566428L494.8307291666667,62.10022879845792L495.625,66.43219008008782L496.41927083333337,63.15955791427973L497.21354166666663,67.55622017759362L498.00781249999994,64.23435221929401L498.8020833333333,66.43219008008782L499.5963541666667,62.10022879845792L500.390625,62.10022879845792L501.18489583333337,58.00905341115288L501.97916666666663,62.10022879845792L502.77343749999994,65.32506996566428L503.5677083333333,64.23435221929401L504.3619791666667,67.55622017759362L505.15625,69.85709819298108L505.95052083333337,68.6976710231549L506.74479166666663,66.43219008008782L507.5390625,63.15955791427973L508.3333333333333,49.5590330706907L509.1276041666667,74.68651537532895L509.92187500000006,62.10022879845792L510.71614583333337,73.44913260815366L511.51041666666663,69.85709819298108L512.3046875,71.03507696514384L513.0989583333334,67.55622017759362L513.8932291666666,60.02622344695817L514.6875,60.02622344695817L515.4817708333334,54.13331101639818L516.2760416666666,52.26935518431799L517.0703125,63.15955791427973L517.8645833333334,71.03507696514384L518.6588541666667,63.15955791427973L519.453125,61.05592612107603L520.2473958333333,58.00905341115288L521.0416666666666,65.32506996566428L521.8359375,73.44913260815366L522.6302083333334,71.03507696514384L523.4244791666667,63.15955791427973L524.21875,56.045680988583115L525.0130208333333,55.08328684029135L525.8072916666666,55.08328684029135L526.6015625,57.020822437438596L527.3958333333334,61.05592612107603L528.1901041666667,68.6976710231549L528.984375,79.85510057104801L529.7786458333333,65.32506996566428L530.5729166666666,66.43219008008782L531.3671875,64.23435221929401L532.1614583333334,61.05592612107603L532.9557291666667,58.00905341115288L533.75,60.02622344695817L534.5442708333333,72.23221068244811L535.3385416666666,61.05592612107603L536.1328125,60.02622344695817L536.9270833333334,56.045680988583115L537.7213541666667,51.35478315060732L538.515625,60.02622344695817L539.3098958333333,62.10022879845792L540.1041666666666,62.10022879845792L540.8984375,60.02622344695817L541.6927083333334,66.43219008008782L542.4869791666667,65.32506996566428L543.28125,63.15955791427973L544.0755208333333,71.03507696514384L544.8697916666666,62.10022879845792L545.6640625,61.05592612107603L546.4583333333334,66.43219008008782L547.2526041666667,56.045680988583115L548.046875,58.00905341115288L548.8411458333333,63.15955791427973L549.6354166666666,69.85709819298108L550.4296875,64.23435221929401L551.2239583333334,58.00905341115288L552.0182291666667,77.22546024084511L552.8125,62.10022879845792L553.6067708333333,67.55622017759362L554.4010416666666,58.00905341115288L555.1953125,66.43219008008782L555.9895833333334,61.05592612107603L556.7838541666666,68.6976710231549L557.578125,74.68651537532895L558.3723958333334,75.94504354806838L559.1666666666666,57.020822437438596L559.9609375,65.32506996566428L560.7552083333334,64.23435221929401L561.5494791666666,77.22546024084511L562.34375,71.03507696514384L563.1380208333334,67.55622017759362L563.9322916666666,60.02622344695817L564.7265625,64.23435221929401L565.5208333333334,69.85709819298108L566.3151041666666,60.02622344695817L567.109375,62.10022879845792L567.9036458333334,62.10022879845792L568.6979166666666,62.10022879845792L569.4921875,61.05592612107603L570.2864583333334,52.26935518431799L571.0807291666666,61.05592612107603L571.875,63.15955791427973L572.6692708333334,75.94504354806838L573.4635416666666,68.6976710231549L574.2578125,66.43219008008782L575.0520833333334,65.32506996566428L575.8463541666666,60.02622344695817L576.640625,62.10022879845792L577.4348958333334,59.01073010319067L578.2291666666667,60.02622344695817L579.0234375,57.020822437438596L579.8177083333333,56.045680988583115L580.6119791666666,60.02622344695817L581.40625,71.03507696514384L582.2005208333334,66.43219008008782L582.9947916666667,67.55622017759362L583.7890625,72.23221068244811L584.5833333333333,69.85709819298108L585.3776041666666,67.55622017759362L586.171875,64.23435221929401L586.9661458333334,68.6976710231549L587.7604166666667,74.68651537532895L588.5546875,64.23435221929401L589.3489583333333,71.03507696514384L590.1432291666666,68.6976710231549L590.9375,63.15955791427973L591.7317708333334,51.35478315060732L592.5260416666667,53.195431559044664L593.3203125,54.13331101639818L594.1145833333333,51.35478315060732L594.9088541666666,59.01073010319067L595.703125,63.15955791427973L596.4973958333334,60.02622344695817L597.2916666666667,68.6976710231549L598.0859375,71.03507696514384L598.8802083333333,69.85709819298108L599.6744791666666,55.08328684029135L600.46875,61.05592612107603L601.2630208333334,74.68651537532895L602.0572916666667,60.02622344695817L602.8515625,64.23435221929401L603.6458333333333,62.10022879845792L604.4401041666666,51.35478315060732L605.234375,64.23435221929401L606.0286458333334,56.045680988583115L606.8229166666667,65.32506996566428L607.6171875,68.6976710231549L608.4114583333333,64.23435221929401L609.2057291666666,59.01073010319067L610,64.23435221929401L610.7942708333334,55.08328684029135L611.5885416666667,62.10022879845792L612.3828125,65.32506996566428L613.1770833333333,64.23435221929401L613.9713541666666,63.15955791427973L614.765625,61.05592612107603L615.5598958333334,63.15955791427973L616.3541666666666,56.045680988583115L617.1484375,53.195431559044664L617.9427083333334,61.05592612107603L618.7369791666666,58.00905341115288L619.53125,62.10022879845792L620.3255208333334,50.45143313230466L621.1197916666666,66.43219008008782L621.9140625,59.01073010319067L622.7083333333334,59.01073010319067L623.5026041666666,67.55622017759362L624.296875,77.22546024084511L625.0911458333334,69.85709819298108L625.8854166666666,62.10022879845792L626.6796875,59.01073010319067L627.4739583333334,60.02622344695817L628.2682291666666,56.045680988583115L629.0625,54.13331101639818L629.8567708333334,58.00905341115288L630.6510416666666,64.23435221929401L631.4453125,67.55622017759362L632.2395833333334,67.55622017759362L633.0338541666666,63.15955791427973L633.828125,54.13331101639818L634.6223958333334,58.00905341115288L635.4166666666666,61.05592612107603L636.2109375,58.00905341115288L637.0052083333334,63.15955791427973L637.7994791666667,58.00905341115288L638.59375,68.6976710231549L639.3880208333333,69.85709819298108L640.1822916666666,68.6976710231549L640.9765625,66.43219008008782L641.7708333333334,63.15955791427973L642.5651041666667,66.43219008008782L643.359375,67.55622017759362L644.1536458333333,55.08328684029135L644.9479166666666,54.13331101639818L645.7421875,59.01073010319067L646.5364583333334,63.15955791427973L647.3307291666667,66.43219008008782L648.125,73.44913260815366L648.9192708333333,57.020822437438596L649.7135416666666,59.01073010319067L650.5078125,61.05592612107603L651.3020833333334,66.43219008008782L652.0963541666667,66.43219008008782L652.890625,69.85709819298108L653.6848958333333,56.045680988583115L654.4791666666666,63.15955791427973L655.2734375,60.02622344695817L656.0677083333334,59.01073010319067L656.8619791666667,60.02622344695817L657.65625,61.05592612107603L658.4505208333333,59.01073010319067L659.2447916666666,65.32506996566428L660.0390625,69.85709819298108L660.8333333333334,63.15955791427973L661.6276041666667,59.01073010319067L662.421875,56.045680988583115L663.2161458333333,54.13331101639818L664.0104166666666,74.68651537532895L664.8046875,61.05592612107603L665.5989583333334,57.020822437438596L666.3932291666667,59.01073010319067L667.1875,64.23435221929401L667.9817708333333,61.05592612107603L668.7760416666666,68.6976710231549L669.5703125,65.32506996566428L670.3645833333334,66.43219008008782L671.1588541666667,63.15955791427973L671.953125,58.00905341115288L672.7473958333333,55.08328684029135L673.5416666666666,61.05592612107603L674.3359375,62.10022879845792L675.1302083333334,64.23435221929401L675.9244791666666,67.55622017759362L676.71875,67.55622017759362L677.5130208333334,65.32506996566428L678.3072916666666,66.43219008008782L679.1015625,71.03507696514384L679.8958333333334,65.32506996566428L680.6901041666666,63.15955791427973L681.484375,65.32506996566428L682.2786458333334,61.05592612107603L683.0729166666666,62.10022879845792L683.8671875,65.32506996566428L684.6614583333334,69.85709819298108L685.4557291666666,69.85709819298108L686.25,73.44913260815366L687.0442708333334,59.01073010319067L687.8385416666666,65.32506996566428L688.6328125,58.00905341115288L689.4270833333334,51.35478315060732L690.2213541666666,59.01073010319067L691.015625,55.08328684029135L691.8098958333334,59.01073010319067L692.6041666666666,61.05592612107603L693.3984375,58.00905341115288L694.1927083333334,55.08328684029135L694.9869791666666,65.32506996566428L695.78125,60.02622344695817L696.5755208333334,53.195431559044664L697.3697916666667,58.00905341115288L698.1640625,61.05592612107603L698.9583333333333,72.23221068244811L699.7526041666666,55.08328684029135L700.546875,56.045680988583115L701.3411458333334,61.05592612107603L702.1354166666667,60.02622344695817L702.9296875,61.05592612107603L703.7239583333333,63.15955791427973L704.5182291666666,56.045680988583115L705.3125,68.6976710231549L706.1067708333334,67.55622017759362L706.9010416666667,68.6976710231549L707.6953125,59.01073010319067L708.4895833333333,61.05592612107603L709.2838541666666,69.85709819298108L710.078125,69.85709819298108L710.8723958333334,60.02622344695817L711.6666666666667,60.02622344695817L712.4609375,58.00905341115288L713.2552083333333,55.08328684029135L714.0494791666666,53.195431559044664L714.84375,55.08328684029135L715.6380208333334,73.44913260815366L716.4322916666667,62.10022879845792L717.2265625,60.02622344695817L718.0208333333333,65.32506996566428L718.8151041666666,64.23435221929401L719.609375,54.13331101639818L720.4036458333334,65.32506996566428L721.1979166666667,64.23435221929401L721.9921875,53.195431559044664L722.7864583333333,60.02622344695817L723.5807291666666,55.08328684029135L724.375,49.5590330706907L725.1692708333334,64.23435221929401L725.9635416666667,64.23435221929401L726.7578125,65.32506996566428L727.5520833333333,65.32506996566428L728.3463541666666,65.32506996566428L729.140625,59.01073010319067L729.9348958333334,56.045680988583115L730.7291666666667,64.23435221929401L731.5234375,63.15955791427973L732.3177083333333,65.32506996566428L733.1119791666666,54.13331101639818L733.90625,61.05592612107603L734.7005208333334,63.15955791427973L735.4947916666666,66.43219008008782L736.2890625,52.26935518431799L737.0833333333334,58.00905341115288L737.8776041666666,71.03507696514384L738.671875,64.23435221929401L739.4661458333334,64.23435221929401L740.2604166666666,62.10022879845792L741.0546875,61.05592612107603L741.8489583333334,65.32506996566428L742.6432291666666,58.00905341115288L743.4375,53.195431559044664L744.2317708333334,59.01073010319067L745.0260416666666,61.05592612107603L745.8203125,59.01073010319067L746.6145833333334,55.08328684029135L747.4088541666666,59.01073010319067L748.203125,59.01073010319067L748.9973958333334,59.01073010319067L749.7916666666666,61.05592612107603L750.5859375,56.045680988583115L751.3802083333334,63.15955791427973L752.1744791666666,71.03507696514384L752.96875,69.85709819298108L753.7630208333334,64.23435221929401L754.5572916666666,65.32506996566428L755.3515625,62.10022879845792L756.1458333333334,74.68651537532895L756.9401041666667,64.23435221929401L757.734375,74.68651537532895L758.5286458333333,68.6976710231549L759.3229166666666,61.05592612107603L760.1171875,74.68651537532895L760.9114583333334,69.85709819298108L761.7057291666667,72.23221068244811L762.5,60.02622344695817L763.2942708333333,58.00905341115288L764.0885416666666,63.15955791427973L764.8828125,62.10022879845792L765.6770833333334,69.85709819298108L766.4713541666667,59.01073010319067L767.265625,64.23435221929401L768.0598958333333,60.02622344695817L768.8541666666666,58.00905341115288L769.6484375,69.85709819298108L770.4427083333334,72.23221068244811L771.2369791666667,61.05592612107603L772.03125,56.045680988583115L772.8255208333333,58.00905341115288L773.6197916666666,54.13331101639818L774.4140625,59.01073010319067L775.2083333333334,62.10022879845792L776.0026041666667,55.08328684029135L776.796875,53.195431559044664L777.5911458333333,62.10022879845792L778.3854166666666,65.32506996566428L779.1796875,63.15955791427973L779.9739583333334,55.08328684029135L780.7682291666667,55.08328684029135L781.5625,51.35478315060732L782.3567708333333,57.020822437438596L783.1510416666666,51.35478315060732L783.9453125,55.08328684029135L784.7395833333334,61.05592612107603L785.5338541666667,60.02622344695817L786.328125,53.195431559044664L787.1223958333333,61.05592612107603L787.9166666666666,69.85709819298108L788.7109375,60.02622344695817L789.5052083333334,57.020822437438596L790.2994791666667,61.05592612107603L791.09375,54.13331101639818L791.8880208333333,60.02622344695817L792.6822916666666,72.23221068244811L793.4765625,82.5821650457429L794.2708333333334,64.23435221929401L795.0651041666666,61.05592612107603L795.859375,56.045680988583115L796.6536458333334,53.195431559044664L797.4479166666666,55.08328684029135L798.2421875,57.020822437438596L799.0364583333334,63.15955791427973L799.8307291666666,51.35478315060732L800.625,67.55622017759362L801.4192708333334,61.05592612107603L802.2135416666666,67.55622017759362L803.0078125,67.55622017759362L803.8020833333334,62.10022879845792L804.5963541666666,64.23435221929401L805.390625,63.15955791427973L806.1848958333334,59.01073010319067L806.9791666666666,56.045680988583115L807.7734375,57.020822437438596L808.5677083333334,60.02622344695817L809.3619791666666,52.26935518431799L810.15625,60.02622344695817L810.9505208333334,57.020822437438596L811.7447916666666,58.00905341115288L812.5390625,61.05592612107603L813.3333333333334,59.01073010319067L814.1276041666666,58.00905341115288L814.921875,56.045680988583115L815.7161458333334,66.43219008008782L816.5104166666667,57.020822437438596L817.3046875,59.01073010319067L818.0989583333333,63.15955791427973L818.8932291666666,62.10022879845792L819.6875,65.32506996566428L820.4817708333334,69.85709819298108L821.2760416666667,59.01073010319067L822.0703125,68.6976710231549L822.8645833333333,69.85709819298108L823.6588541666666,65.32506996566428L824.453125,65.32506996566428L825.2473958333334,56.045680988583115L826.0416666666667,56.045680988583115L826.8359375,60.02622344695817L827.6302083333333,60.02622344695817L828.4244791666666,61.05592612107603L829.21875,57.020822437438596L830.0130208333334,55.08328684029135L830.8072916666667,54.13331101639818L831.6015625,59.01073010319067L832.3958333333333,67.55622017759362L833.1901041666666,61.05592612107603L833.984375,58.00905341115288L834.7786458333334,56.045680988583115L835.5729166666667,54.13331101639818L836.3671875,55.08328684029135L837.1614583333333,59.01073010319067L837.9557291666666,59.01073010319067L838.75,62.10022879845792L839.5442708333334,58.00905341115288L840.3385416666667,50.45143313230466L841.1328125,54.13331101639818L841.9270833333333,58.00905341115288L842.7213541666666,59.01073010319067L843.515625,58.00905341115288L844.3098958333334,50.45143313230466L845.1041666666667,57.020822437438596L845.8984375,64.23435221929401L846.6927083333333,61.05592612107603L847.4869791666666,62.10022879845792L848.28125,55.08328684029135L849.0755208333334,64.23435221929401L849.8697916666667,57.020822437438596L850.6640625,61.05592612107603L851.4583333333333,60.02622344695817L852.2526041666666,53.195431559044664L853.046875,62.10022879845792L853.8411458333334,55.08328684029135L854.6354166666666,65.32506996566428L855.4296875,64.23435221929401L856.2239583333334,57.020822437438596L857.0182291666666,64.23435221929401L857.8125,63.15955791427973L858.6067708333334,60.02622344695817L859.4010416666666,57.020822437438596L860.1953125,58.00905341115288L860.9895833333334,52.26935518431799L861.7838541666666,52.26935518431799L862.578125,59.01073010319067L863.3723958333334,60.02622344695817L864.1666666666666,62.10022879845792L864.9609375,65.32506996566428L865.7552083333334,56.045680988583115L866.5494791666666,61.05592612107603L867.34375,59.01073010319067L868.1380208333334,57.020822437438596L868.9322916666666,51.35478315060732L869.7265625,67.55622017759362L870.5208333333334,65.32506996566428L871.3151041666666,57.020822437438596L872.109375,62.10022879845792" style="fill: none;" fill="none"></path></g></g></g></g></g></g><g transform="translate(48, 377)" clip-path="url(#clip_1)"><clipPath id="clip_1"><rect width="953" height="22"></rect></clipPath><g><g><line x1="0" y1="0" x2="0" y2="5" style="visibility: inherit;" fill="rgb(0, 0, 0)" stroke="rgb(204, 204, 204)" stroke-width="1px"></line><line x1="79.42708333333333" y1="0" x2="79.42708333333333" y2="5" style="visibility: inherit;" fill="rgb(0, 0, 0)" stroke="rgb(204, 204, 204)" stroke-width="1px"></line><line x1="158.85416666666666" y1="0" x2="158.85416666666666" y2="5" style="visibility: inherit;" fill="rgb(0, 0, 0)" stroke="rgb(204, 204, 204)" stroke-width="1px"></line><line x1="238.28125" y1="0" x2="238.28125" y2="5" style="visibility: inherit;" fill="rgb(0, 0, 0)" stroke="rgb(204, 204, 204)" stroke-width="1px"></line><line x1="317.7083333333333" y1="0" x2="317.7083333333333" y2="5" style="visibility: inherit;" fill="rgb(0, 0, 0)" stroke="rgb(204, 204, 204)" stroke-width="1px"></line><line x1="397.1354166666667" y1="0" x2="397.1354166666667" y2="5" style="visibility: inherit;" fill="rgb(0, 0, 0)" stroke="rgb(204, 204, 204)" stroke-width="1px"></line><line x1="476.5625" y1="0" x2="476.5625" y2="5" style="visibility: inherit;" fill="rgb(0, 0, 0)" stroke="rgb(204, 204, 204)" stroke-width="1px"></line><line x1="555.9895833333334" y1="0" x2="555.9895833333334" y2="5" style="visibility: inherit;" fill="rgb(0, 0, 0)" stroke="rgb(204, 204, 204)" stroke-width="1px"></line><line x1="635.4166666666666" y1="0" x2="635.4166666666666" y2="5" style="visibility: inherit;" fill="rgb(0, 0, 0)" stroke="rgb(204, 204, 204)" stroke-width="1px"></line><line x1="714.84375" y1="0" x2="714.84375" y2="5" style="visibility: inherit;" fill="rgb(0, 0, 0)" stroke="rgb(204, 204, 204)" stroke-width="1px"></line><line x1="794.2708333333334" y1="0" x2="794.2708333333334" y2="5" style="visibility: inherit;" fill="rgb(0, 0, 0)" stroke="rgb(204, 204, 204)" stroke-width="1px"></line><line x1="873.6979166666666" y1="0" x2="873.6979166666666" y2="5" style="visibility: inherit;" fill="rgb(0, 0, 0)" stroke="rgb(204, 204, 204)" stroke-width="1px"></line><line x1="953.125" y1="0" x2="953.125" y2="5" style="visibility: inherit;" fill="rgb(0, 0, 0)" stroke="rgb(204, 204, 204)" stroke-width="1px"></line></g><g transform="translate(0, 8)"><text x="0" y="0" dx="0em" dy="0.95em" style="text-anchor: middle; visibility: hidden; font-family: &quot;Helvetica Neue&quot;, sans-serif; font-size: 12px; font-weight: 200;" fill="rgb(50, 49, 63)" stroke="none" stroke-width="1px">-100</text><text x="79.42708333333333" y="0" dx="0em" dy="0.95em" style="text-anchor: middle; visibility: inherit; font-family: &quot;Helvetica Neue&quot;, sans-serif; font-size: 12px; font-weight: 200;" fill="rgb(50, 49, 63)" stroke="none" stroke-width="1px">0</text><text x="158.85416666666666" y="0" dx="0em" dy="0.95em" style="text-anchor: middle; visibility: inherit; font-family: &quot;Helvetica Neue&quot;, sans-serif; font-size: 12px; font-weight: 200;" fill="rgb(50, 49, 63)" stroke="none" stroke-width="1px">100</text><text x="238.28125" y="0" dx="0em" dy="0.95em" style="text-anchor: middle; visibility: inherit; font-family: &quot;Helvetica Neue&quot;, sans-serif; font-size: 12px; font-weight: 200;" fill="rgb(50, 49, 63)" stroke="none" stroke-width="1px">200</text><text x="317.7083333333333" y="0" dx="0em" dy="0.95em" style="text-anchor: middle; visibility: inherit; font-family: &quot;Helvetica Neue&quot;, sans-serif; font-size: 12px; font-weight: 200;" fill="rgb(50, 49, 63)" stroke="none" stroke-width="1px">300</text><text x="397.1354166666667" y="0" dx="0em" dy="0.95em" style="text-anchor: middle; visibility: inherit; font-family: &quot;Helvetica Neue&quot;, sans-serif; font-size: 12px; font-weight: 200;" fill="rgb(50, 49, 63)" stroke="none" stroke-width="1px">400</text><text x="476.5625" y="0" dx="0em" dy="0.95em" style="text-anchor: middle; visibility: inherit; font-family: &quot;Helvetica Neue&quot;, sans-serif; font-size: 12px; font-weight: 200;" fill="rgb(50, 49, 63)" stroke="none" stroke-width="1px">500</text><text x="555.9895833333334" y="0" dx="0em" dy="0.95em" style="text-anchor: middle; visibility: inherit; font-family: &quot;Helvetica Neue&quot;, sans-serif; font-size: 12px; font-weight: 200;" fill="rgb(50, 49, 63)" stroke="none" stroke-width="1px">600</text><text x="635.4166666666666" y="0" dx="0em" dy="0.95em" style="text-anchor: middle; visibility: inherit; font-family: &quot;Helvetica Neue&quot;, sans-serif; font-size: 12px; font-weight: 200;" fill="rgb(50, 49, 63)" stroke="none" stroke-width="1px">700</text><text x="714.84375" y="0" dx="0em" dy="0.95em" style="text-anchor: middle; visibility: inherit; font-family: &quot;Helvetica Neue&quot;, sans-serif; font-size: 12px; font-weight: 200;" fill="rgb(50, 49, 63)" stroke="none" stroke-width="1px">800</text><text x="794.2708333333334" y="0" dx="0em" dy="0.95em" style="text-anchor: middle; visibility: inherit; font-family: &quot;Helvetica Neue&quot;, sans-serif; font-size: 12px; font-weight: 200;" fill="rgb(50, 49, 63)" stroke="none" stroke-width="1px">900</text><text x="873.6979166666666" y="0" dx="0em" dy="0.95em" style="text-anchor: middle; visibility: inherit; font-family: &quot;Helvetica Neue&quot;, sans-serif; font-size: 12px; font-weight: 200;" fill="rgb(50, 49, 63)" stroke="none" stroke-width="1px">1k</text><text x="953.125" y="0" dx="0em" dy="0.95em" style="text-anchor: middle; visibility: hidden; font-family: &quot;Helvetica Neue&quot;, sans-serif; font-size: 12px; font-weight: 200;" fill="rgb(50, 49, 63)" stroke="none" stroke-width="1px">1.1k</text></g><line x1="0" y1="0" x2="953.125" y2="0" fill="rgb(0, 0, 0)" stroke="rgb(204, 204, 204)" stroke-width="1px"></line></g></g></g></g></svg>