<svg viewBox="0 0 1002 400" xmlns="http://www.w3.org/2000/svg"><g><g><g><g><g><line x1="29.4375" y1="377.828125" x2="24.4375" y2="377.828125" style="visibility: inherit;" fill="rgb(0, 0, 0)" stroke="rgb(204, 204, 204)" stroke-width="1px"></line><line x1="29.4375" y1="340.0453125" x2="24.4375" y2="340.0453125" style="visibility: inherit;" fill="rgb(0, 0, 0)" stroke="rgb(204, 204, 204)" stroke-width="1px"></line><line x1="29.4375" y1="302.2625" x2="24.4375" y2="302.2625" style="visibility: inherit;" fill="rgb(0, 0, 0)" stroke="rgb(204, 204, 204)" stroke-width="1px"></line><line x1="29.4375" y1="264.4796875" x2="24.4375" y2="264.4796875" style="visibility: inherit;" fill="rgb(0, 0, 0)" stroke="rgb(204, 204, 204)" stroke-width="1px"></line><line x1="29.4375" y1="226.696875" x2="24.4375" y2="226.696875" style="visibility: inherit;" fill="rgb(0, 0, 0)" stroke="rgb(204, 204, 204)" stroke-width="1px"></line><line x1="29.4375" y1="188.9140625" x2="24.4375" y2="188.9140625" style="visibility: inherit;" fill="rgb(0, 0, 0)" stroke="rgb(204, 204, 204)" stroke-width="1px"></line><line x1="29.4375" y1="151.13125" x2="24.4375" y2="151.13125" style="visibility: inherit;" fill="rgb(0, 0, 0)" stroke="rgb(204, 204, 204)" stroke-width="1px"></line><line x1="29.4375" y1="113.34843749999999" x2="24.4375" y2="113.34843749999999" style="visibility: inherit;" fill="rgb(0, 0, 0)" stroke="rgb(204, 204, 204)" stroke-width="1px"></line><line x1="29.4375" y1="75.56562500000001" x2="24.4375" y2="75.56562500000001" style="visibility: inherit;" fill="rgb(0, 0, 0)" stroke="rgb(204, 204, 204)" stroke-width="1px"></line><line x1="29.4375" y1="37.78281249999998" x2="24.4375" y2="37.78281249999998" style="visibility: inherit;" fill="rgb(0, 0, 0)" stroke="rgb(204, 204, 204)" stroke-width="1px"></line><line x1="29.4375" y1="0" x2="24.4375" y2="0" style="visibility: inherit;" fill="rgb(0, 0, 0)" stroke="rgb(204, 204, 204)" stroke-width="1px"></line></g><g transform="translate(19.4375, 0)"><text x="0" y="377.828125" dx="0em" dy="0.3em" style="text-anchor: end; visibility: hidden; font-family: &quot;Helvetica Neue&quot;, sans-serif; font-size: 12px; font-weight: 200;" fill="rgb(50, 49, 63)" stroke="none" stroke-width="1px">-1</text><text x="0" y="340.0453125" dx="0em" dy="0.3em" style="text-anchor: end; visibility: inherit; font-family: &quot;Helvetica Neue&quot;, sans-serif; font-size: 12px; font-weight: 200;" fill="rgb(50, 49, 63)" stroke="none" stroke-width="1px">0</text><text x="0" y="302.2625" dx="0em" dy="0.3em" style="text-anchor: end; visibility: inherit; font-family: &quot;Helvetica Neue&quot;, sans-serif; font-size: 12px; font-weight: 200;" fill="rgb(50, 49, 63)" stroke="none" stroke-width="1px">1</text><text x="0" y="264.4796875" dx="0em" dy="0.3em" style="text-anchor: end; visibility: inherit; font-family: &quot;Helvetica Neue&quot;, sans-serif; font-size: 12px; font-weight: 200;" fill="rgb(50, 49, 63)" stroke="none" stroke-width="1px">2</text><text x="0" y="226.696875" dx="0em" dy="0.3em" style="text-anchor: end; visibility: inherit; font-family: &quot;Helvetica Neue&quot;, sans-serif; font-size: 12px; font-weight: 200;" fill="rgb(50, 49, 63)" stroke="none" stroke-width="1px">3</text><text x="0" y="188.9140625" dx="0em" dy="0.3em" style="text-anchor: end; visibility: inherit; font-family: &quot;Helvetica Neue&quot;, sans-serif; font-size: 12px; font-weight: 200;" fill="rgb(50, 49, 63)" stroke="none" stroke-width="1px">4</text><text x="0" y="151.13125" dx="0em" dy="0.3em" style="text-anchor: end; visibility: inherit; font-family: &quot;Helvetica Neue&quot;, sans-serif; font-size: 12px; font-weight: 200;" fill="rgb(50, 49, 63)" stroke="none" stroke-width="1px">5</text><text x="0" y="113.34843749999999" dx="0em" dy="0.3em" style="text-anchor: end; visibility: inherit; font-family: &quot;Helvetica Neue&quot;, sans-serif; font-size: 12px; font-weight: 200;" fill="rgb(50, 49, 63)" stroke="none" stroke-width="1px">6</text><text x="0" y="75.56562500000001" dx="0em" dy="0.3em" style="text-anchor: end; visibility: inherit; font-family: &quot;Helvetica Neue&quot;, sans-serif; font-size: 12px; font-weight: 200;" fill="rgb(50, 49, 63)" stroke="none" stroke-width="1px">7</text><text x="0" y="37.78281249999998" dx="0em" dy="0.3em" style="text-anchor: end; visibility: inherit; font-family: &quot;Helvetica Neue&quot;, sans-serif; font-size: 12px; font-weight: 200;" fill="rgb(50, 49, 63)" stroke="none" stroke-width="1px">8</text><text x="0" y="0" dx="0em" dy="0.3em" style="text-anchor: end; visibility: hidden; font-family: &quot;Helvetica Neue&quot;, sans-serif; font-size: 12px; font-weight: 200;" fill="rgb(50, 49, 63)" stroke="none" stroke-width="1px">9</text></g><line x1="29.4375" y1="0" x2="29.4375" y2="377.828125" fill="rgb(0, 0, 0)" stroke="rgb(204, 204, 204)" stroke-width="1px"></line></g></g><g transform="translate(29, 0)" clip-path="url(#clip_0)"><clipPath id="clip_0"><rect width="972" height="377"></rect></clipPath><g><g><g><line x1="0" y1="0" x2="0" y2="377.828125" fill="rgb(0, 0, 0)" stroke="rgb(60, 60, 60)" stroke-width="1px" opacity="0.25"></line><line x1="81.046875" y1="0" x2="81.046875" y2="377.828125" fill="rgb(0, 0, 0)" stroke="rgb(60, 60, 60)" stroke-width="1px" opacity="0.25"></line><line x1="162.09375" y1="0" x2="162.09375" y2="377.828125" fill="rgb(0, 0, 0)" stroke="rgb(60, 60, 60)" stroke-width="1px" opacity="0.25"></line><line x1="243.140625" y1="0" x2="243.140625" y2="377.828125" fill="rgb(0, 0, 0)" stroke="rgb(60, 60, 60)" stroke-width="1px" opacity="0.25"></line><line x1="324.1875" y1="0" x2="324.1875" y2="377.828125" fill="rgb(0, 0, 0)" stroke="rgb(60, 60, 60)" stroke-width="1px" opacity="0.25"></line><line x1="405.234375" y1="0" x2="405.234375" y2="377.828125" fill="rgb(0, 0, 0)" stroke="rgb(60, 60, 60)" stroke-width="1px" opacity="0.25"></line><line x1="486.28125" y1="0" x2="486.28125" y2="377.828125" fill="rgb(0, 0, 0)" stroke="rgb(60, 60, 60)" stroke-width="1px" opacity="0.25"></line><line x1="567.328125" y1="0" x2="567.328125" y2="377.828125" fill="rgb(0, 0, 0)" stroke="rgb(60, 60, 60)" stroke-width="1px" opacity="0.25"></line><line x1="648.375" y1="0" x2="648.375" y2="377.828125" fill="rgb(0, 0, 0)" stroke="rgb(60, 60, 60)" stroke-width="1px" opacity="0.25"></line><line x1="729.421875" y1="0" x2="729.421875" y2="377.828125" fill="rgb(0, 0, 0)" stroke="rgb(60, 60, 60)" stroke-width="1px" opacity="0.25"></line><line x1="810.46875" y1="0" x2="810.46875" y2="377.828125" fill="rgb(0, 0, 0)" stroke="rgb(60, 60, 60)" stroke-width="1px" opacity="0.25"></line><line x1="891.515625" y1="0" x2="891.515625" y2="377.828125" fill="rgb(0, 0, 0)" stroke="rgb(60, 60, 60)" stroke-width="1px" opacity="0.25"></line><line x1="972.5625" y1="0" x2="972.5625" y2="377.828125" fill="rgb(0, 0, 0)" stroke="rgb(60, 60, 60)" stroke-width="1px" opacity="0.25"></line></g><g><line x1="0" y1="377.828125" x2="972.5625" y2="377.828125" fill="rgb(0, 0, 0)" stroke="rgb(60, 60, 60)" stroke-width="1px" opacity="0.25"></line><line x1="0" y1="340.0453125" x2="972.5625" y2="340.0453125" fill="rgb(0, 0, 0)" stroke="rgb(60, 60, 60)" stroke-width="1px" opacity="0.25"></line><line x1="0" y1="302.2625" x2="972.5625" y2="302.2625" fill="rgb(0, 0, 0)" stroke="rgb(60, 60, 60)" stroke-width="1px" opacity="0.25"></line><line x1="0" y1="264.4796875" x2="972.5625" y2="264.4796875" fill="rgb(0, 0, 0)" stroke="rgb(60, 60, 60)" stroke-width="1px" opacity="0.25"></line><line x1="0" y1="226.696875" x2="972.5625" y2="226.696875" fill="rgb(0, 0, 0)" stroke="rgb(60, 60, 60)" stroke-width="1px" opacity="0.25"></line><line x1="0" y1="188.9140625" x2="972.5625" y2="188.9140625" fill="rgb(0, 0, 0)" stroke="rgb(60, 60, 60)" stroke-width="1px" opacity="0.25"></line><line x1="0" y1="151.13125" x2="972.5625" y2="151.13125" fill="rgb(0, 0, 0)" stroke="rgb(60, 60, 60)" stroke-width="1px" opacity="0.25"></line><line x1="0" y1="113.34843749999999" x2="972.5625" y2="113.34843749999999" fill="rgb(0, 0, 0)" stroke="rgb(60, 60, 60)" stroke-width="1px" opacity="0.25"></line><line x1="0" y1="75.56562500000001" x2="972.5625" y2="75.56562500000001" fill="rgb(0, 0, 0)" stroke="rgb(60, 60, 60)" stroke-width="1px" opacity="0.25"></line><line x1="0" y1="37.78281249999998" x2="972.5625" y2="37.78281249999998" fill="rgb(0, 0, 0)" stroke="rgb(60, 60, 60)" stroke-width="1px" opacity="0.25"></line><line x1="0" y1="0" x2="972.5625" y2="0" fill="rgb(0, 0, 0)" stroke="rgb(60, 60, 60)" stroke-width="1px" opacity="0.25"></line></g></g></g><g><g><line x1="0" y1="340.0453125" x2="972.5625" y2="340.0453125" fill="rgb(0, 0, 0)" stroke="rgb(153, 153, 153)" stroke-width="1.5px"></line></g></g><g><g><line x1="81.046875" y1="0" x2="81.046875" y2="377.828125" fill="rgb(0, 0, 0)" stroke="rgb(153, 153, 153)" stroke-width="1.5px"></line></g></g><g><g><g><g><g><path stroke="rgb(0, 119, 187)" stroke-width="2px" d="M81.046875,207.6434756476432L89.1515625,119.67129749278536L97.25625000000001,161.24794037325347L105.3609375,188.34300894199544L113.465625,220.7610874041682L121.5703125,227.1302796645868L129.675,245.77614179067515L137.7796875,249.47794767073705L145.884375,251.1666963834458L153.9890625,256.5687417833876L162.09375,266.0399862683879L170.19843749999998,266.02542024177103L178.303125,273.78044895487824L186.4078125,274.0191607245514L194.51250000000002,283.275391768266L202.6171875,288.44836480089424L210.721875,291.8067677790957L218.8265625,286.6210376149565L226.93125,282.4124171248478L235.0359375,293.34343465294876L243.140625,295.5886939524877L251.2453125,291.16280618522944L259.35,290.4777364913108L267.45468750000003,288.5880399284401L275.559375,285.18333434132467L283.6640625,284.49768713514976L291.76875,288.7861581909687L299.8734375,296.2338587499864L307.978125,290.68200505852417L316.0828125,289.42251641647647L324.1875,294.0713835244039L332.2921875,288.00595234793974L340.39687499999997,287.86166805166977L348.5015625,279.2603783685338L356.60625,285.281679875701L364.7109375,292.51337656863296L372.815625,295.01551813765286L380.9203125,289.27085148374834L389.02500000000003,292.4595855398327L397.1296875,290.98153554328985L405.234375,282.8213422595302L413.3390625,286.77778766532435L421.44375,284.574740365061L429.5484375,289.88314742763686L437.653125,289.88104155827943L445.7578125,292.31325800408325L453.8625,276.6331122955141L461.96718749999997,271.6557429567625L470.071875,278.0313444072509L478.1765625,286.9238383491761L486.28125,291.3969581327015L494.38593749999995,285.62166063731263L502.490625,281.5811926837663L510.59531250000003,292.0102038573747L518.7,299.4688980084496L526.8046875,299.85893815893473L534.9093750000001,298.51983203553254L543.0140625,298.836229569692L551.11875,296.47434207624394L559.2234374999999,299.0964426839052L567.328125,295.19856190003134L575.4328125,295.71241818959817L583.5375,295.2113754007686L591.6421875,299.27281869841926L599.746875,295.191751721983L607.8515625,297.35488571739785L615.95625,301.8810644323995L624.0609375,301.9376985305769L632.165625,302.8617474464981L640.2703125,305.95807584700935L648.375,305.1388474652347L656.4796875000001,302.9769465269403L664.584375,303.8738085454259L672.6890625,302.40524532179853L680.7937499999999,299.28951239566993L688.8984375,296.8448048031687L697.003125,293.11842374280747L705.1078125,294.9898818882594L713.2125,296.03364742642873L721.3171875,295.28450486776967L729.421875,286.5969183497443L737.5265625,293.6937307136693L745.63125,295.90340846150747L753.7359375,292.3182450827636L761.840625,296.959846723962L769.9453125,291.3058012282182L778.0500000000001,292.6559010387408L786.1546875,286.51136273955984L794.259375,293.3738714627739L802.3640624999999,294.89541088267066L810.46875,295.18806030630407L818.5734375,290.50200121613943L826.678125,295.2297966109222L834.7828125,301.4592956500653L842.8875,301.91678113284877L850.9921875,301.43115697074336L859.096875,296.4526517277563L867.2015625,292.4167506660881L875.30625,290.94484651078955L883.4109375,294.2754578223984" style="fill: none;" fill="none"></path></g><g><path stroke="rgb(255, 112, 67)" stroke-width="2px" d="M81.046875,235.34005332402884L81.85734375,211.8378396897111L82.66781250000001,186.67080768546734L83.47828125,166.01408427836898L84.28875000000001,136.60850122817902L85.09921874999999,125.13777484881498L85.9096875,81.83675095473649L86.72015625,99.0969634485104L87.530625,86.26395743763982L88.34109375,80.02243912165818L89.1515625,73.02081816143243L89.96203125,81.4920544825975L90.77250000000001,71.90496236067219L91.58296874999999,92.6990639159651L92.3934375,96.1836162829519L93.20390625,122.43761402383765L94.014375,164.78012446498218L94.82484375,153.55080427466402L95.6353125,161.9729665862661L96.44578125,153.2005316842524L97.25625000000001,164.39167535294172L98.06671874999999,162.76686307552018L98.8771875,199.60994398152098L99.68765624999999,223.24420219373945L100.498125,229.87305234416345L101.30859375,227.2652199893415L102.1190625,223.7031679565661L102.92953125,207.6840468077832L103.74000000000001,217.7605715557202L104.55046875,219.06939858190472L105.3609375,222.0077267277652L106.17140624999999,214.4257735676869L106.981875,227.38919318335556L107.79234375,218.04737917773375L108.6028125,223.10507834794802L109.41328125,219.21099789532468L110.22375,226.7423771514723L111.03421875,234.41653809739987L111.8446875,232.7040873475597L112.65515624999999,238.57190380166904L113.465625,238.37404348787254L114.27609374999999,248.98726268891076L115.0865625,247.67195765611447L115.89703125,248.72978606547514L116.7075,251.77746779369562L117.51796875,246.35315298313196L118.3284375,240.74605635889824L119.13890624999999,232.9787280341041L119.949375,235.40940411228544L120.75984375,230.85345258150952L121.5703125,229.48162182306254L122.38078125,232.2812991668962L123.19125000000001,238.839473396562L124.00171875000001,247.07501870291648L124.8121875,243.6475135966948L125.62265625,255.70006475671454L126.433125,252.83428423925767L127.24359375,251.24424466117915L128.0540625,255.33859366595595L128.86453125,261.05129775625403L129.675,264.349059088063L130.48546875,260.73262925164795L131.2959375,261.401588092249L132.10640625,266.5722104033836L132.916875,266.3395184786474L133.72734375000002,267.7271713741932L134.5378125,265.22917844121537L135.34828124999999,268.16927293786335L136.15875000000003,262.9257798930939L136.96921875,262.63031946798776L137.7796875,254.56823907021052L138.59015624999998,253.7565739242635L139.40062500000002,250.1509693514348L140.21109375,259.43033525964864L141.0215625,264.8449608185664L141.83203125,267.13509334936884L142.6425,267.6461062639365L143.45296875,271.40536597605995L144.2634375,264.87756445116673L145.07390625,265.8109298162572L145.884375,261.00522366183475L146.69484375000002,264.37999086159454L147.5053125,267.02818637045016L148.31578125,265.7004999768841L149.12625,262.995556607372L149.93671875,262.8655971354404L150.7471875,262.6885573058521L151.55765624999998,267.27064241650373L152.36812500000002,272.8270412629555L153.17859375,277.8894351625121L153.9890625,282.16349421821093L154.79953125,274.7813603930596L155.61,259.8470503612115L156.42046875,259.5503739637884L157.23093749999998,268.968207859263L158.04140625,271.01743120715923L158.851875,277.0009164273197L159.66234375,281.3419554429176L160.4728125,281.1562834714754L161.28328125,280.0734009066912L162.09375,274.1860667470659L162.90421875,276.384361192573L163.7146875,283.1112482802504L164.52515624999998,286.672079456534L165.33562500000002,286.1211663727081L166.14609375,279.5126674081603L166.9565625,271.04926919211266L167.76703124999997,265.16882617038084L168.57750000000001,268.0292357343381L169.38796875,267.18695792804334L170.19843749999998,273.5943034525971L171.00890625,273.29603646949L171.819375,267.2065557527844L172.62984375,271.3630301461103L173.4403125,277.54938283677296L174.25078125,284.0358787522637L175.06125,286.7219541647836L175.87171875,287.3517084401133L176.6821875,290.889704754131L177.49265624999998,291.32592941413935L178.303125,285.8269109591282L179.11359375,288.4718170943521L179.9240625,287.1288809027619L180.73453125,287.9277940517722L181.54500000000002,286.7393021084254L182.35546875,288.10022851242934L183.16593749999998,285.8201658997793L183.97640625,278.7046926923906L184.786875,277.77340171982735L185.59734375,283.7011109271639L186.4078125,280.62614799009225L187.21828125000002,279.1190307458726L188.02875,276.5982794874452L188.83921875,274.4744887619342L189.6496875,277.0996476442591L190.46015625,283.98366131259354L191.270625,291.2967371768406L192.08109375,291.20567474680547L192.8915625,284.92440726126677L193.70203125,277.37989139804506L194.51250000000002,280.8422172294513L195.32296875,284.76115262196697L196.13343749999999,273.9021119325533L196.94390625000003,270.9503357903912L197.754375,270.406360423744L198.56484375,270.357877645302L199.37531249999998,273.32819435725105L200.18578125000002,258.52779286551174L200.99625,244.15461746646582L201.80671875,255.65626756202352L202.6171875,266.7027460552822L203.42765625,275.5690259684664L204.238125,273.89298356142893L205.04859375,270.0205333141521L205.8590625,264.42057408455224L206.66953125,272.1785338660372L207.48000000000002,277.8328422180738L208.29046875,281.39283241283454L209.1009375,284.17925635547374L209.91140625,283.78613330801386L210.721875,286.14902051459285L211.53234375,292.68364588895014L212.34281249999998,290.2817978092496L213.15328125000002,286.03569412311697L213.96375,286.2692164751487L214.77421875,286.39173882090137L215.5846875,278.3814189803337L216.39515625,271.40933344612927L217.205625,277.56598933756595L218.01609374999998,285.44922917378096L218.8265625,274.98933128426756L219.63703125,276.6945043536144L220.4475,280.3412118359427L221.25796875,279.531046043129L222.0684375,271.4827485847719L222.87890625,271.9064795536248L223.689375,275.605704184395L224.49984375,285.0329059923571L225.31031249999998,284.8570213828165L226.12078125000002,290.22205254315907L226.93125,281.081949688298L227.74171875,279.77763250704254L228.55218749999997,289.10617007306604L229.36265625000001,285.0632734330975L230.173125,288.2757800089558L230.98359374999998,288.56080379372776L231.7940625,296.76722633789296L232.60453125,296.2348741862942L233.415,294.02888598255925L234.22546875,295.34615446589953L235.0359375,298.5519513490427L235.84640625,300.5728991873267L236.656875,299.29637806823564L237.46734375,296.1028893542928L238.27781249999998,291.5867072933253L239.08828125,282.37110355926075L239.89875,283.2042246731073L240.70921875,270.6274930892557L241.5196875,271.0063047998053L242.33015625000002,272.2983052963258L243.140625,278.7243957592095L243.95109375,286.1831448854831L244.7615625,281.79525385226765L245.57203125,280.31783461683074L246.38250000000002,280.7365990561281L247.19296874999998,286.206610137569L248.00343750000002,285.91303275002366L248.81390625000003,280.67502660191553L249.624375,278.85154021165664L250.43484375,280.6297933592313L251.2453125,290.0120908979424L252.05578125,289.75442766994826L252.86625,285.7583835143631L253.67671874999996,270.33366682581817L254.4871875,268.34313611911364L255.29765625000002,270.027918770174L256.108125,276.9543804617284L256.91859375,275.66293831335355L257.7290625,283.09619496892003L258.53953125,287.7609973159737L259.35,289.2559581119452L260.16046875,293.1792428314617L260.9709375,289.1475578094977L261.78140625,281.89399629200744L262.591875,281.04200397873075L263.40234375,283.7366217290261L264.2128125,284.3340744514703L265.02328125,287.350240071904L265.83375,293.48571918568246L266.64421875,298.0040812155156L267.45468750000003,296.03798382129065L268.26515624999996,294.81814554636657L269.075625,286.2053569728433L269.88609375000004,288.91028016116013L270.69656249999997,294.01179880838566L271.50703125,294.4198227449714L272.31750000000005,293.51032342587166L273.12796875,289.5456280256763L273.9384375,288.03273296493023L274.74890624999995,287.7118554198756L275.559375,282.1036408578017L276.36984375000003,278.6517765129154L277.18031249999996,281.66763767746363L277.99078125,285.6317500163452L278.80125000000004,287.1623060843698L279.61171874999997,292.912287811792L280.4221875,288.613163886059L281.23265625,279.2653775575541L282.043125,284.71835651637804L282.85359375,280.3310491173219L283.6640625,280.0692949607224L284.47453125,284.6999579303265L285.285,291.8785605779842L286.09546875,290.9447079707119L286.9059375,290.80449209266504L287.71640625,291.48784756424186L288.526875,294.39627678051386L289.33734375,296.83792897234736L290.1478125,299.4924124961816L290.95828125,289.92289596271354L291.76875,282.23256837500236L292.57921875,282.4353817067182L293.38968750000004,290.5683848493404L294.20015624999996,295.12259618323185L295.010625,301.55516056522663L295.82109375,298.630063599005L296.6315625,285.28173479283134L297.44203125,287.7547947268592L298.2525,286.4929777697269L299.06296875,288.8333185833272L299.8734375,288.27957839178003L300.68390625,289.2506225187746L301.494375,292.1931235771875L302.30484375000003,292.0327358442694L303.11531249999996,295.442094113791L303.92578125,294.8089126561516L304.73625000000004,291.03649185877646L305.54671874999997,286.5965215684867L306.3571875,288.00741314251104L307.16765625,292.1199463064008L307.978125,296.7426401664783L308.78859375,296.41118480346915L309.5990625,289.180974989428L310.40953125,293.35072359385725L311.22,297.780674420663L312.03046875,298.464850442033L312.8409375,296.0075673824823L313.65140625000004,294.0616294372097L314.46187499999996,288.96384178134895L315.27234375,281.0535320730245L316.0828125,286.1750025346122L316.89328125,287.36823334488224L317.70375,286.4253149000135L318.51421875,288.4816342910276L319.3246875,291.0994071449427L320.13515625,290.05857954073474L320.945625,288.5856509733112L321.75609375,290.4692058848835L322.5665625,290.53894385650733L323.37703125,287.45757079611707L324.1875,293.01768972093157L324.99796875,297.0183282521474L325.8084375,297.39499296953426L326.61890625,299.51379512837616L327.429375,299.194068686164L328.23984375000003,297.5686348519454L329.05031249999996,299.816184218927L329.86078125,299.59273846698034L330.67125000000004,299.4879167927189L331.48171874999997,301.3225356632327L332.2921875,299.50708072707687L333.10265625000005,295.44561673201997L333.913125,297.15509875735864L334.72359375,292.79618157019456L335.53406249999995,291.68348190573L336.34453125,292.05233150377654L337.15500000000003,297.0366771675559L337.96546874999996,300.4904724171705L338.7759375,298.1736183884559L339.58640625000004,298.9135814965706L340.39687499999997,295.95423949090787L341.20734375,292.980395189915L342.0178125,289.6301504822039L342.82828125,292.49828139969486L343.63875,288.9425753732251L344.44921875,291.65784862032393L345.2596875,291.91013335460934L346.07015625,296.829434214157L346.880625,294.67013099931006L347.69109375,293.03674079950054L348.5015625,294.06263944000244L349.31203125,293.8979777573957L350.1225,284.5541119759181L350.93296875,287.4440230981945L351.7434375,291.8330171715581L352.55390625,296.55504185941743L353.364375,300.0810435999896L354.17484375000004,298.79429765124416L354.98531249999996,294.74132900352356L355.79578125,279.8418261168306L356.60625,283.81339171881405L357.41671875,289.56993855278154L358.2271875,295.3967426614267L359.03765625,295.32704102881564L359.848125,289.9809066635389L360.65859375,281.2009786076557L361.4690625,274.9625116663999L362.27953125,282.46923495339314L363.09000000000003,287.9275824255166L363.90046874999996,293.3925722634892L364.7109375,292.517240760243L365.52140625000004,289.9428773069477L366.33187499999997,290.1813850446997L367.14234375,293.26209312599644L367.9528125,294.1816794508502L368.76328125,284.87389308095305L369.57375,281.2235664542337L370.38421875,290.73822924652364L371.1946875,292.93384306450884L372.00515625,292.677419945271L372.815625,297.44379284988116L373.62609375,297.51241679614947L374.43656250000004,303.76287424613486L375.24703124999996,305.54351599491804L376.0575,306.1726423746849L376.86796875,300.46464098142116L377.6784375,304.0637693609463L378.48890625,301.95668425578873L379.299375,295.9269912176967L380.10984375,274.98382437757493L380.9203125,264.48456458632256L381.73078125,264.4577441217548L382.54125,271.0633259626953L383.35171875,278.1428123264151L384.1621875,289.47739024124365L384.97265625,295.19170943591337L385.783125,296.6873889500996L386.59359375,298.8752501247883L387.4040625,298.25137500813963L388.21453125,294.8375159678689L389.02500000000003,291.2554088095773L389.83546874999996,291.9637936420708L390.6459375,288.7698573777061L391.45640625000004,289.2915048713375L392.26687499999997,294.67563145130214L393.07734375,299.7919744718482L393.88781250000005,299.08577989129185L394.69828125,295.86593229912495L395.50875,295.6470825597958L396.31921874999995,295.26785832101507L397.1296875,300.4759350816795L397.94015625000003,294.3235758821153L398.75062499999996,298.9905729548251L399.56109375,299.5193861253479L400.37156250000004,294.7633739940029L401.18203124999997,296.417288070348L401.9925,297.40173098611956L402.80296875,299.46120926465466L403.6134375,297.407745330786L404.42390625,289.2218651031734L405.234375,292.2976499625463L406.04484375,291.3456388156664L406.8553125,283.30973087764096L407.66578125,291.66672720430824L408.47625,292.04818981420124L409.28671875,294.3326493193574L410.0971875,290.3365619130353L410.90765625,291.28247664853455L411.718125,296.6734248368637L412.52859375,298.44965496711114L413.3390625,303.63697932371304L414.14953125,305.9706449983049L414.96000000000004,302.2945374574529L415.77046874999996,299.3957283825437L416.5809375,301.7078586288622L417.39140625,305.4437286829699L418.201875,301.799156618908L419.01234375,292.59476372855596L419.8228125,296.59309760254735L420.63328125,298.13239855995545L421.44375,291.72748793299957L422.25421875,289.4540721239803L423.0646875,282.5561065730994L423.87515625000003,283.0616117450622L424.68562499999996,289.32842296484273L425.49609375,293.1135702989886L426.30656250000004,294.6978486622059L427.11703124999997,297.8714217199569L427.9275,303.67742476015894L428.73796875,305.4451590350992L429.5484375,301.8867360444651L430.35890625,301.8242246860585L431.169375,301.51364198255965L431.97984375,299.9579655580427L432.7903125,299.92634322622155L433.60078125,294.93555352213224L434.41125,290.1408492632046L435.22171875000004,292.70910645141214L436.03218749999996,296.79528921809947L436.84265625,304.6891392706612L437.653125,305.0406591388973L438.46359375,302.01847861824285L439.2740625,299.2824645130655L440.08453125,298.45797221094796L440.895,297.37499225299314L441.70546875,296.510459598963L442.5159375,298.3014735663322L443.32640625,291.5614564985417L444.136875,291.74714444296853L444.94734375,299.11389793626097L445.7578125,299.3146841560848L446.56828125,294.0138756092666L447.37875,270.3440060069429L448.18921875,272.76649147825043L448.9996875,274.67548037652136L449.81015625000003,282.97686834139506L450.62062499999996,287.4082487666033L451.43109375,277.0838563927068L452.24156250000004,275.8263181600305L453.05203124999997,284.6768862981845L453.8625,275.8163501990884L454.67296875000005,260.93026912766993L455.4834375,269.4341570789861L456.29390625,275.3985529486238L457.10437499999995,282.4190543039232L457.91484375,290.54656436311984L458.72531250000003,293.0510051215755L459.53578124999996,298.52964943197026L460.34625,300.6366068638662L461.15671875000004,295.17045841245647L461.96718749999997,288.864120592572L462.77765625,285.1205427796529L463.588125,280.5604665477357L464.39859375,290.3320394899268L465.2090625,289.1300931969773L466.01953125,288.04938054595834L466.83,282.27753171713323L467.64046875,286.86485354231996L468.4509375,294.0601887482536L469.26140625,298.064793539681L470.071875,298.700910067715L470.88234375,293.56772150719627L471.6928125,294.8366155809877L472.50328125,298.07103711257685L473.31375,302.9388287319783L474.12421875,305.04945261465275L474.9346875,305.0489585495696L475.74515625000004,299.1615969381753L476.55562499999996,291.60593538773196L477.36609375,287.8107200269678L478.1765625,290.44263490094414L478.98703125,288.1703548030029L479.7975,281.6121184675974L480.60796875,286.3457993387629L481.4184375,290.2234104998827L482.22890625,290.95743087137754L483.039375,289.3221532196105L483.84984375,294.6025528652028L484.66031250000003,300.45306981120586L485.47078124999996,300.70544493154637L486.28125,303.32856153420926L487.09171875000004,299.8469396234144L487.9021875,298.5339803675913L488.71265624999995,294.7955846355917L489.523125,296.8327251094021L490.33359375,293.76804836295173L491.1440625,289.7471935147919L491.95453125,289.54566710523534L492.76500000000004,294.51593061860956L493.57546874999997,296.1545125488285L494.38593749999995,294.356264551511L495.19640625,289.47637006195225L496.00687500000004,289.13327144608996L496.81734375,295.0884532490066L497.62781250000006,293.84580907977767L498.43828124999993,297.46156999841867L499.24875,292.678355201933L500.05921875,295.92096124863815L500.8696875,300.0244499196183L501.68015625000004,296.70438476582297L502.490625,293.2028344381149L503.30109374999995,294.4577567009357L504.1115625,292.54530331548915L504.92203125,297.6292157998345L505.7325,297.73879259523227L506.54296875000006,291.9925958533375L507.3534374999999,292.39662031325923L508.16390624999997,296.314917285104L508.974375,299.5676501651015L509.78484375,300.34607896853424L510.59531250000003,300.89713881290817L511.40578125,304.4055509711913L512.21625,303.5708887280143L513.02671875,302.9325661474387L513.8371875,301.3918736648661L514.64765625,299.96770184268667L515.458125,291.9818953926421L516.26859375,289.12531341992656L517.0790625,292.7471033650359L517.88953125,297.55741476920815L518.7,307.2785984782022L519.51046875,300.9662053265507L520.3209375,301.39774254766616L521.13140625,296.74616147373627L521.941875,298.6179135415376L522.75234375,295.4397276758206L523.5628125,293.8197933825286L524.37328125,297.19494648925547L525.18375,300.8673847028738L525.9942187500001,304.5736676316187L526.8046875,308.2356736410469L527.6151562499999,307.271975914616L528.425625,301.934134552168L529.23609375,297.83429260241223L530.0465625,297.47689629539684L530.85703125,302.1718593233516L531.6675,300.2010424050653L532.47796875,291.7771858309486L533.2884375,286.1526756237315L534.09890625,290.50787533859113L534.9093750000001,294.00147447602274L535.71984375,301.48921264918937L536.5303124999999,303.3682473272818L537.34078125,305.0242351512678L538.15125,302.14694938178764L538.96171875,301.6872030954266L539.7721875000001,289.83315709103374L540.58265625,290.5612442863388L541.3931249999999,292.1558892222437L542.20359375,297.04944907816156L543.0140625,298.96437806027774L543.8245312500001,302.7995257374653L544.6350000000001,302.21540395867873L545.4454687499999,297.08052681439847L546.2559375,296.04659592280524L547.06640625,294.6558787977382L547.876875,300.1875153088978L548.6873437500001,306.6758346562481L549.4978124999999,305.28543604965637L550.3082812499999,305.70033999386806L551.11875,303.66548679420873L551.92921875,302.428171079752L552.7396875000001,300.3653293287886L553.55015625,293.5063870573719L554.3606249999999,294.71396568326236L555.17109375,297.00738222961473L555.9815625,299.88699983233124L556.79203125,301.7440730126137L557.6025000000001,303.58012892649674L558.41296875,305.83274675307337L559.2234374999999,306.7903561334173L560.03390625,306.17387565141826L560.844375,303.2531306322867L561.65484375,299.98907889724995L562.4653125,303.4349325065015L563.27578125,293.0789807903289L564.08625,296.6104906959098L564.89671875,293.591638070137L565.7071875,295.7575864044819L566.5176562500001,292.80910767044094L567.328125,289.07985074356475L568.1385937499999,288.2800797309594L568.9490625,285.1412890233765L569.75953125,268.7070001690489L570.57,279.11928124115775L571.38046875,288.5487491350154L572.1909375,295.52696146511465L573.00140625,288.5860599208231L573.811875,289.80968540740645L574.62234375,282.87856653374513L575.4328125,290.4476319115882L576.24328125,294.549820576103L577.05375,291.51330425597223L577.86421875,290.62170311373166L578.6746875,293.22266693375525L579.48515625,298.44382181737285L580.295625,300.456627415782L581.10609375,301.04233941587256L581.9165625,305.1970670308319L582.72703125,304.68644356478137L583.5375,302.7359768701278L584.34796875,296.6606577750404L585.1584375,288.32532505706604L585.96890625,291.1096996730754L586.7793750000001,296.2509782420063L587.58984375,296.46589925536296L588.4003124999999,298.2542366705017L589.21078125,302.7561537741752L590.02125,299.993529732101L590.83171875,303.77196386907866L591.6421875,306.0526338257156L592.45265625,305.7495747009076L593.263125,298.7724353087936L594.07359375,293.98010667863457L594.8840625,289.35544883394516L595.6945312500001,287.4575896394806L596.505,285.8750023927573L597.3154687499999,284.83340502888166L598.1259375,290.4634378171575L598.93640625,293.99415600965096L599.746875,287.8912572684567L600.5573437500001,292.589596218403L601.3678125,290.42830663824725L602.1782812499999,282.58490545543816L602.98875,283.8831688564586L603.79921875,292.57302757637603L604.6096875000001,301.0737885302642L605.4201562500001,305.0854538165086L606.2306249999999,309.3048083602669L607.04109375,307.0055504010562L607.8515625,306.21035986644443L608.66203125,304.17342303426517L609.4725000000001,300.43683936607215L610.2829687499999,299.9661837042056L611.0934374999999,299.2637738922645L611.90390625,299.70417671058533L612.714375,304.1738730212909L613.5248437500001,300.0004351196952L614.3353125,298.79284507368607L615.1457812499999,300.84026210008324L615.95625,303.93258965584346L616.76671875,307.77863216246044L617.5771875,305.62985111196264L618.3876562500001,309.1797235262062L619.198125,306.9414488759139L620.0085937499999,302.4375097878426L620.8190625,299.6452596657812L621.62953125,302.3638745306188L622.44,299.0917843766215L623.25046875,299.4924188867034L624.0609375,300.91915517254597L624.87140625,300.8667185830559L625.681875,300.77681011617096L626.49234375,301.4558588266591L627.3028125000001,302.640380216105L628.11328125,302.82797504713426L628.9237499999999,301.85094344064765L629.73421875,306.4179328801568L630.5446875,306.10254730227354L631.35515625,306.2199335954652L632.165625,304.90418436807784L632.97609375,308.4907690979609L633.7865625,306.50065458726544L634.59703125,305.7879836558128L635.4075,308.9846855745509L636.21796875,304.1329984934357L637.0284375,298.3001091898219L637.83890625,288.6325253939322L638.649375,292.5159503401483L639.45984375,300.36069443247703L640.2703125,303.87169164570116L641.08078125,305.08474167813773L641.89125,308.90696964997005L642.70171875,310.7658328792852L643.5121875,306.3697163276465L644.32265625,303.74292460777406L645.133125,291.67220980985786L645.94359375,293.24195707508227L646.7540625,300.6878838938075L647.5645312500001,303.56883181551683L648.375,305.3590927089801L649.1854687499999,307.02743414327057L649.9959375,305.98511081634194L650.80640625,306.75258185184435L651.616875,300.39543482022845L652.42734375,286.8857112415574L653.2378125,283.9785846336449L654.04828125,284.8161506445715L654.85875,288.59552884759063L655.66921875,287.0135950320903L656.4796875000001,291.5692779873427L657.29015625,296.88363162615843L658.1006249999999,304.8174922718194L658.91109375,306.23774473953017L659.7215625,306.15987943355157L660.53203125,301.9873248391981L661.3425000000001,298.87292593947853L662.15296875,300.8294434269551L662.9634374999999,296.6722062317451L663.77390625,299.8672115645808L664.584375,301.30729672961695L665.3948437500001,296.62278905684207L666.2053125000001,297.96768540963205L667.0157812499999,300.83091680235964L667.82625,303.92962456011657L668.63671875,305.5748296895333L669.4471875,304.93883106592796L670.2576562500001,304.21926597868503L671.0681249999999,306.1235948372042L671.8785937499999,306.475556274021L672.6890625,304.1787920119699L673.49953125,301.8557631815127L674.3100000000001,304.40905469963116L675.12046875,305.1366959781373L675.9309374999999,306.8076298105895L676.74140625,307.65939230479626L677.551875,299.8922185247858L678.36234375,304.1774052380454L679.1728125000001,304.9283203216378L679.98328125,304.6234363431176L680.7937499999999,299.1692433789784L681.60421875,298.9962574813762L682.4146875,295.911722596079L683.22515625,296.5890237001121L684.035625,297.1343763019913L684.84609375,299.90031686451425L685.6565625,297.11728590399855L686.46703125,303.5580060615142L687.2775,304.4963849345744L688.0879687500001,303.7673409330785L688.8984375,304.2607402483636L689.7089062499999,298.4769209836432L690.519375,293.6927530333852L691.32984375,291.0005536741289L692.1403125,295.1605714631094L692.95078125,293.0550628041186L693.76125,293.1678765369927L694.57171875,292.68040667696147L695.3821875,289.53014771810683L696.19265625,297.052048321271L697.003125,300.5060143087158L697.81359375,298.91989998795685L698.6240625,300.07955741057157L699.43453125,297.67522384379424L700.245,291.8918445341534L701.05546875,292.89378683948496L701.8659375,295.41589513031533L702.67640625,298.8019861155846L703.486875,305.9958085907458L704.29734375,308.4413677515736L705.1078125,310.676157618852L705.91828125,309.8456114249924L706.72875,307.59421170461917L707.53921875,310.0217531125769L708.3496875000001,309.7238178013131L709.16015625,306.62742779111056L709.9706249999999,300.8030607498001L710.78109375,305.51774613716077L711.5915625,305.33188942608456L712.40203125,305.38908495940103L713.2125,303.68346862487397L714.02296875,306.46312359045385L714.8334375,305.8838435238328L715.64390625,302.43456743848185L716.454375,304.8884918446726L717.2648437500001,299.7180348046354L718.0753125,296.40936643274017L718.8857812499999,301.40706622137213L719.69625,300.45145725657693L720.50671875,298.54975384324877L721.3171875,297.3686906819796L722.1276562500001,300.01372257610444L722.938125,300.22365080768043L723.7485937499999,295.1364421675603L724.5590625,298.19404946092516L725.36953125,299.83784247934074L726.1800000000001,302.8915918547243L726.9904687500001,304.48169678849456L727.8009374999999,305.8969649119078L728.61140625,308.63694912860683L729.421875,307.0177465691113L730.23234375,297.22600463428756L731.0428125000001,283.74618188797626L731.8532812499999,283.5247842707288L732.6637499999999,283.023075614679L733.47421875,288.24374065998677L734.2846875,298.230154956451L735.0951562500001,299.8837979859164L735.905625,300.9838642014444L736.7160937499999,303.451705695853L737.5265625,303.24153698547354L738.33703125,305.1237259458075L739.1475,308.7863040856612L739.9579687500001,307.03507565015354L740.7684375,301.3748407606262L741.5789062499999,299.8784700387852L742.389375,298.7986114263765L743.19984375,298.3895466792722L744.0103125,300.78440712962384L744.82078125,303.4146972094034L745.63125,304.05791891926856L746.44171875,303.11904509552915L747.2521875,304.15160103332903L748.06265625,306.19651895700787L748.8731250000001,305.5728226037034L749.68359375,304.6855227405553L750.4940624999999,301.69365279680346L751.30453125,306.68933158635855L752.115,305.35607761592274L752.92546875,301.132828045491L753.7359375,296.47614800258197L754.54640625,295.53700468822547L755.356875,294.3496520312681L756.16734375,296.9460470656785L756.9778125,297.3847219085832L757.78828125,302.2255331794852L758.59875,306.53911130829505L759.40921875,303.21196965845735L760.2196875,301.22710516875867L761.03015625,303.7094474066102L761.840625,304.58767492510697L762.65109375,301.9637010149677L763.4615625,301.34492733873543L764.27203125,301.4834887471653L765.0825,303.97080573383613L765.89296875,306.2465172070631L766.7034375,304.99056635783575L767.51390625,298.4329252291409L768.324375,296.8023305315487L769.1348437500001,294.83332324057596L769.9453125,297.1228140830533L770.7557812499999,294.9473093487046L771.56625,289.48278969047794L772.37671875,285.7948730317106L773.1871875,279.4303613426447L773.99765625,284.1622309353L774.808125,288.0998898668465L775.61859375,285.940776074581L776.4290625,284.32247103119056L777.23953125,285.703523717458L778.0500000000001,290.9470137111902L778.86046875,295.0161864365673L779.6709374999999,298.0757446982286L780.48140625,300.3094207602186L781.291875,297.7170215622302L782.10234375,293.87463543531095L782.9128125000001,295.3455626753974L783.72328125,294.1538326105778L784.5337499999999,300.571067202616L785.34421875,294.75205292010503L786.1546875,292.0135091629874L786.9651562500001,293.77868607370567L787.7756250000001,295.3597427698434L788.5860937499999,299.17175778459523L789.3965625,304.5910727548511L790.20703125,304.5904324357829L791.0175,302.95058310285935L791.8279687500001,305.0123266923396L792.6384374999999,307.0512724831607L793.4489062499999,306.6524469940308L794.259375,302.5314914125022L795.06984375,304.48467357372886L795.8803125000001,306.6734082501569L796.69078125,304.3991346595549L797.5012499999999,308.9288304665529L798.31171875,310.73857585616963L799.1221875,312.99095358939803L799.93265625,313.76315061936873L800.7431250000001,310.70753689573763L801.55359375,308.49729125401564L802.3640624999999,307.31684667904636L803.17453125,308.0553279630584L803.985,304.8811205766942L804.79546875,304.3245718906728L805.6059375,304.56362335308086L806.41640625,303.85473521991787L807.226875,306.62411746893355L808.03734375,306.11389071089195L808.8478125,298.5978022653888L809.6582812500001,294.2896501327473L810.46875,288.8394960588913L811.2792187499999,287.50970137844683L812.0896875,295.5209965046433L812.90015625,302.80795706975834L813.710625,304.7848938307516L814.52109375,306.383919851339L815.3315625,304.7011192361898L816.14203125,307.25901468085567L816.9525,303.0215475688119L817.76296875,297.7835590097153L818.5734375,294.41236307667754L819.38390625,294.3818300776754L820.194375,298.60788720220023L821.00484375,304.1092689988446L821.8153125,304.5686842920963L822.62578125,303.74136969972903L823.43625,303.3033310705677L824.24671875,306.0693059806082L825.0571875,306.61977010523844L825.86765625,309.47625097408485L826.678125,307.30487055267895L827.48859375,307.54434220752717L828.2990625,306.3581062401405L829.10953125,303.99764637276957L829.9200000000001,301.999582535031L830.73046875,305.53083832696234L831.5409374999999,307.84800565252544L832.35140625,301.32771434722747L833.161875,301.26063046999815L833.97234375,300.58430026015964L834.7828125,304.10643355446354L835.59328125,304.8990477162066L836.40375,302.4202243330307L837.21421875,297.48317715419694L838.0246875,302.6769605930499L838.8351562500001,300.2306327225776L839.645625,299.7867246503837L840.4560937499999,298.6264747898404L841.2665625,296.8223219603672L842.07703125,300.4282725913301L842.8875,304.91386991716024L843.6979687500001,305.54701510028L844.5084375,304.72534632112655L845.3189062499999,305.5011222698976L846.129375,304.0675409796798L846.93984375,308.12605787373116L847.7503125000001,310.75582997672427L848.5607812500001,307.55309869735044L849.3712499999999,305.52447493944976L850.18171875,307.89915969960043L850.9921875,306.1536386180946L851.80265625,309.6285512859168L852.6131250000001,312.1360249649088L853.4235937499999,313.12706859778467L854.2340624999999,309.3516346993438L855.04453125,305.53008663690935L855.855,302.4540977538338L856.6654687500001,306.02868300907824L857.4759375,310.73693649728904L858.2864062499999,311.9478885157991L859.096875,310.3390872432493L859.90734375,308.14952399346697L860.7178125,305.5394709908275L861.5282812500001,311.36516562280406L862.33875,310.9246445607534L863.1492187499999,304.89386211671774L863.9596875,305.1878463110378L864.77015625,301.5234662181765L865.580625,302.24932487106355L866.39109375,304.25788650093097L867.2015625,307.55122473759275L868.01203125,303.38570911450876L868.8225,303.51332918093317L869.63296875,308.92462783633596L870.4434375000001,307.26619859854236L871.25390625,308.74834826093826L872.0643749999999,305.80064005145084L872.87484375,305.02642378770497L873.6853125,304.8007750774216L874.49578125,303.190640571403L875.30625,302.0695894992724L876.11671875,302.72626706545054L876.9271875,306.22421476459203L877.73765625,303.9915834737015L878.548125,308.2249908020909L879.35859375,313.17947919775935L880.1690625,311.19452661076866L880.97953125,306.7245085708033L881.79,308.74167235496526L882.60046875,299.0269659112566L883.4109375,302.75419289317267L884.22140625,299.8986308748814L885.031875,300.98714376596615L885.84234375,302.5247673497081L886.6528125,304.97723812106136L887.46328125,302.04656005415546L888.27375,296.1556400805755L889.08421875,300.18104575854056L889.8946875,301.11984315157093" style="fill: none;" fill="none"></path></g></g></g></g><g opacity="0.20000000298023224"><g><g><g><path stroke="rgb(0, 119, 187)" stroke-width="2px" d="M81.046875,207.6434756476432L89.1515625,66.8879905998707L97.25625000000001,201.1615175385028L105.3609375,220.20680957883596L113.465625,263.08613064438106L121.5703125,235.94116546995937L129.675,272.44002296477555L137.7796875,254.8752161812037L145.884375,253.65727271214126L153.9890625,264.5901496263221L162.09375,280.160949505493L170.19843749999998,266.0036504695192L178.303125,285.38767051026224L186.4078125,274.3767607178539L194.51250000000002,297.1488579817116L202.6171875,296.2041759684682L210.721875,296.84295108281077L218.8265625,278.8437590250745L226.93125,276.1001275306568L235.0359375,309.7389618068002L243.140625,298.9564597664401L251.2453125,284.5241201700643L259.35,289.45014547593894L267.45468750000003,285.7535174693912L275.559375,280.07630015984176L283.6640625,283.46921924985946L291.76875,295.21885380167515L299.8734375,307.40539815453815L307.978125,282.35422963537275L316.0828125,287.5332841495052L324.1875,301.04468264468017L332.2921875,278.9078067900613L340.39687499999997,287.6452416244894L348.5015625,266.3584444599226L356.60625,294.3136318776757L364.7109375,303.36092142155394L372.815625,298.7687304524705L380.9203125,280.65385155621914L389.02500000000003,297.24268660619856L397.1296875,288.7644605534151L405.234375,270.5810523502529L413.3390625,292.71245576925577L421.44375,281.27016941625624L429.5484375,297.84575801920147L437.653125,289.8778827542439L445.7578125,295.9615826724097L453.8625,253.11289373412728L461.96718749999997,264.1896889489144L470.071875,287.59474658276883L478.1765625,300.26257926188407L486.28125,298.1066378079355L494.38593749999995,276.9587143942714L502.490625,275.5204907534644L510.59531250000003,307.65372061776L518.7,310.65693923505023L526.8046875,300.443998384662L534.9093750000001,296.51117285043L543.0140625,299.3108258709311L551.11875,292.9315108360723L559.2234374999999,303.0295935953967L567.328125,289.35174072422086L575.4328125,296.48320262394844L583.5375,294.45981121752413L591.6421875,305.36498364489523L599.746875,289.0701512573287L607.8515625,300.5995867105201L615.95625,308.67033250490203L624.0609375,302.0226496778429L632.165625,304.24782082038L640.2703125,310.60256844777615L648.375,303.9100048925728L656.4796875000001,299.73409511949865L664.584375,305.2191015731543L672.6890625,300.20240048635753L680.7937499999999,294.61591300647706L688.8984375,293.1777434144169L697.003125,287.5288521522656L705.1078125,297.7970691064373L713.2125,297.5992957336828L721.3171875,294.1607910297811L729.421875,273.56553857270626L737.5265625,304.33894925955684L745.63125,299.21792508326473L753.7359375,286.94050001464785L761.840625,303.9222491857596L769.9453125,282.82473298460246L778.0500000000001,294.6810507545248L786.1546875,277.2945552907884L794.259375,303.66763454759496L802.3640624999999,297.1777200125158L810.46875,295.62703444175423L818.5734375,283.47291258089246L826.678125,302.32148970309646L834.7828125,310.80354420877995L842.8875,302.603009357024L850.9921875,300.70272072758524L859.096875,288.98489386327566L867.2015625,286.3628990735859L875.30625,288.7369902778417L883.4109375,299.27137478981166" style="fill: none;" fill="none"></path></g><g><path stroke="rgb(255, 112, 67)" stroke-width="2px" d="M81.046875,235.34005332402884L81.85734375,197.73651150912048L82.66781250000001,162.51045696139337L83.47828125,141.72177755162122L84.28875000000001,98.21657199785113L85.09921874999999,109.26963080465794L85.9096875,19.91559396982194L86.72015625,124.26251896247268L87.530625,67.33776625469329L88.34109375,70.75451183393596L89.1515625,62.58189090788363L89.96203125,94.15280887037517L90.77250000000001,57.55562769696115L91.58296874999999,123.84947843924166L92.3934375,101.40634887292981L93.20390625,161.80009428188205L94.014375,228.27597219534218L94.82484375,136.70967511236668L95.6353125,174.6049270220101L96.44578125,140.04268116652966L97.25625000000001,181.17777710705994L98.06671874999999,160.32969812452794L98.8771875,254.87383793815968L99.68765624999999,258.69530954174695L100.498125,239.81628045476972L101.30859375,223.35348257832229L102.1190625,218.3600990217179L102.92953125,183.65538967773318L103.74000000000001,232.87534939572214L104.55046875,221.03263839781283L105.3609375,226.41521797217428L106.17140624999999,203.0528453361243L106.981875,246.8343210592866L107.79234375,204.034658838436L108.6028125,230.69162688590586L109.41328125,213.36987731680273L110.22375,238.039445919171L111.03421875,245.92777944505215L111.8446875,230.13541123233736L112.65515624999999,247.37362846322358L113.465625,238.07725301757455L114.27609374999999,264.90709147769957L115.0865625,245.6990001078695L115.89703125,250.31652867905797L116.7075,256.34899038523434L117.51796875,238.21668076813222L118.3284375,232.33541142307223L119.13890624999999,221.32773554734885L119.949375,239.0554182294756L120.75984375,224.0195252854377L121.5703125,227.42387568540872L122.38078125,236.48081518262626L123.19125000000001,248.67673474103213L124.00171875000001,259.4283366624266L124.8121875,238.50625593736768L125.62265625,273.77889149673285L126.433125,248.53561346307396L127.24359375,248.8591852940619L128.0540625,261.4801171731204L128.86453125,269.6203538917005L129.675,269.2957010857761L130.48546875,255.3079844970256L131.2959375,262.4050263531506L132.10640625,274.32814387008546L132.916875,265.990480591543L133.72734375000002,269.8086507175118L134.5378125,261.48218904174865L135.34828124999999,272.57941468283536L136.15875000000003,255.06054032593966L136.96921875,262.18712883032856L137.7796875,242.4751184735447L138.59015624999998,252.539076205343L139.40062500000002,244.74256249219178L140.21109375,273.34938412196936L141.0215625,272.966899156943L141.83203125,270.5702921455726L142.6425,268.41262563578783L143.45296875,277.04425554424523L144.2634375,255.08586216382685L145.07390625,267.21097786389294L145.884375,253.79666443020108L146.69484375000002,269.4421416612342L147.5053125,271.0004796337336L148.31578125,263.70897038653493L149.12625,258.93814155310395L149.93671875,262.67065792754295L150.7471875,262.4229975614697L151.55765624999998,274.1437700824812L152.36812500000002,281.1616395326331L153.17859375,285.48302601184696L153.9890625,288.5745828017592L154.79953125,263.70815965533257L155.61,237.44558531343938L156.42046875,259.1053593676537L157.23093749999998,283.09495870247486L158.04140625,274.0912662290037L158.851875,285.97614425756035L159.66234375,287.8535139663145L160.4728125,280.8777755143121L161.28328125,278.4490770595148L162.09375,265.355065507628L162.90421875,279.6818028608337L163.7146875,293.20157891176643L164.52515624999998,292.0133262209594L165.33562500000002,285.2947967469692L166.14609375,269.5999189613387L166.9565625,258.35417186804113L167.76703124999997,256.34816163778305L168.57750000000001,272.319850080274L169.38796875,265.92354121860114L170.19843749999998,283.20532173942775L171.00890625,272.84863599482924L171.819375,258.072334677726L172.62984375,277.5977417360991L173.4403125,286.8289118727669L174.25078125,293.7656226255L175.06125,290.7510672835633L175.87171875,288.29633985310795L176.6821875,296.1966992251575L177.49265624999998,291.9802664041519L178.303125,277.5783832766116L179.11359375,292.4391762971878L179.9240625,285.11447661537676L180.73453125,289.1261637752876L181.54500000000002,284.9565641934052L182.35546875,290.14161811843513L183.16593749999998,282.4000719808042L183.97640625,268.0314828813076L184.786875,276.3764652609825L185.59734375,292.59267473816874L186.4078125,276.01370358448474L187.21828125000002,276.8583548795432L188.02875,272.8171525998041L188.83921875,271.28880267366765L189.6496875,281.0373859677464L190.46015625,294.30968181509525L191.270625,302.2663509732112L192.08109375,291.06908110175283L192.8915625,275.50250603295865L193.70203125,266.0631176032126L194.51250000000002,286.03570597656073L195.32296875,290.6395557107404L196.13343749999999,257.6135508984327L196.94390625000003,266.5226715771481L197.754375,269.59039737377316L198.56484375,270.28515347763897L199.37531249999998,277.7836694251746L200.18578125000002,236.32719062790275L200.99625,222.59485436789691L201.80671875,272.90874270536005L202.6171875,283.2724637951702L203.42765625,288.8684458382428L204.238125,271.37891995087267L205.04859375,264.21185794323685L205.8590625,256.0206352401525L206.66953125,283.81547353826465L207.48000000000002,286.31430474612864L208.29046875,286.7328177049756L209.1009375,288.35889226943254L209.91140625,283.1964487368241L210.721875,289.6933513244614L211.53234375,302.48558395048605L212.34281249999998,286.67902568969873L213.15328125000002,279.66653859391806L213.96375,286.6195000031963L214.77421875,286.57552233953027L215.5846875,266.36593921948224L216.39515625,260.9512051448226L217.205625,286.800973174721L218.01609374999998,297.2740889281034L218.8265625,259.2994844499975L219.63703125,279.25226395763457L220.4475,285.81127305943517L221.25796875,278.3157973539084L222.0684375,259.41030239723625L222.87890625,272.54207600690427L223.689375,281.15454113055023L224.49984375,299.1737087043002L225.31031249999998,284.59319446850566L226.12078125000002,298.26959928367285L226.93125,267.3717954060063L227.74171875,277.82115673515943L228.55218749999997,303.09897642210126L229.36265625000001,278.99892847314476L230.173125,293.0945398727432L230.98359374999998,288.9883394708857L231.7940625,309.0768601541407L232.60453125,295.43634595889597L233.415,290.7199036769569L234.22546875,297.32205719090996L235.0359375,303.36064667375757L235.84640625,303.60432094475254L236.656875,297.38159638959917L237.46734375,291.3126562833786L238.27781249999998,284.8124342018738L239.08828125,268.5476979581639L239.89875,284.4539063438773L240.70921875,251.76239571347833L241.5196875,271.57452236562966L242.33015625000002,274.23630604110656L243.140625,288.36353145353496L243.95109375,297.37126857489346L244.7615625,275.21341730244455L245.57203125,278.1017057636753L246.38250000000002,281.36474571507426L247.19296874999998,294.41162675973027L248.00343750000002,285.47266666870564L248.81390625000003,272.8180173797533L249.624375,276.1163106262684L250.43484375,283.2971730805933L251.2453125,304.085537206009L252.05578125,289.36793282795696L252.86625,279.76431728098544L253.67671874999996,247.1965917930007L254.4871875,265.35734005905687L255.29765625000002,272.55509274676444L256.108125,287.34407299906013L256.91859375,273.7257750907913L257.7290625,294.2460799522698L258.53953125,294.7582008365542L259.35,291.4983993059024L260.16046875,299.0641699107364L260.9709375,283.1000302765518L261.78140625,271.01365401577203L262.591875,279.76401550881565L263.40234375,287.77854835446925L264.2128125,285.23025353513657L265.02328125,291.8744885025546L265.83375,302.6889378563501L266.64421875,304.7816242602654L267.45468750000003,293.08883772995324L268.26515624999996,292.9883881339803L269.075625,273.28617411255834L269.88609375000004,292.96766494363544L270.69656249999997,301.664076779224L271.50703125,295.0318586498499L272.31750000000005,292.1460744472221L273.12796875,283.5985849253833L273.9384375,285.76339037381115L274.74890624999995,287.23053910229356L275.559375,273.6913190146908L276.36984375000003,273.473979995586L277.18031249999996,286.1914294242859L277.99078125,291.5779185246676L278.80125000000004,289.4581401864067L279.61171874999997,301.5372604029253L280.4221875,282.16447799745947L281.23265625,265.2436980647966L282.043125,292.89782495461407L282.85359375,273.75008801873776L283.6640625,279.6766637258232L284.47453125,291.64595238473265L285.285,302.6464645494707L286.09546875,289.5439290598035L286.9059375,290.5941682755947L287.71640625,292.5128807716072L288.526875,298.75892060492185L289.33734375,300.5004072600976L290.1478125,303.47413778193294L290.95828125,275.5686211625114L291.76875,270.69707699343564L292.57921875,282.739601704292L293.38968750000004,302.7678895632736L294.20015624999996,301.9539131840691L295.010625,311.20400713821874L295.82109375,294.24241814967246L296.6315625,265.2592415835708L297.44203125,291.46438462790104L298.2525,284.6002523340285L299.06296875,292.34382980372754L299.8734375,287.44896810445937L300.68390625,290.70718870926646L301.494375,296.60687516480687L302.30484375000003,291.7921542448923L303.11531249999996,300.55613151807336L303.92578125,293.85914046969265L304.73625000000004,285.37786066271366L305.54671874999997,279.9365661330521L306.3571875,290.1237505035475L307.16765625,298.28874605223535L307.978125,303.6766809565946L308.78859375,295.9140017589554L309.5990625,278.3356602683663L310.40953125,299.605346500501L311.22,304.42560066087174L312.03046875,299.49111447408796L312.8409375,292.32164279315623L313.65140625000004,291.1427225193009L314.46187499999996,281.31716029755773L315.27234375,269.1880675105378L316.0828125,293.8572082269937L316.89328125,289.1580795602873L317.70375,285.01093723271043L318.51421875,291.56611337754873L319.3246875,295.0260664258152L320.13515625,288.4973381344229L320.945625,286.37625812217595L321.75609375,293.2945382522419L322.5665625,290.64355081394314L323.37703125,282.83551120553165L324.1875,301.35786810815335L324.99796875,303.01928604897114L325.8084375,297.9599900456145L326.61890625,302.69199836663904L327.429375,298.71447902284564L328.23984375000003,295.1304841006175L329.05031249999996,303.1875082693994L329.86078125,299.2575698390603L330.67125000000004,299.33068428132685L331.48171874999997,304.07446396900343L332.2921875,296.783898322843L333.10265625000005,289.3534207394347L333.913125,299.7193217953667L334.72359375,286.2578057894483L335.53406249999995,290.0144324090332L336.34453125,292.6056059008464L337.15500000000003,304.5131956632249L337.96546874999996,305.6711652915925L338.7759375,294.69833734538406L339.58640625000004,300.0235261587426L340.39687499999997,291.5152264824137L341.20734375,288.5196287384257L342.0178125,284.60478342063726L342.82828125,296.80047777593137L343.63875,283.6090163335204L344.44921875,295.7307584909722L345.2596875,292.28856045603754L346.07015625,304.2083855034783L346.880625,291.43117617703973L347.69109375,290.58665549978616L348.5015625,295.6014874007553L349.31203125,293.6509852334857L350.1225,270.53831330370156L350.93296875,291.77888978160917L351.7434375,298.41650828160346L352.55390625,303.63807889120653L353.364375,305.3700462108478L354.17484375000004,296.864178728126L354.98531249999996,288.66187603194265L355.79578125,257.4925717867911L356.60625,289.7707401217893L357.41671875,298.2047588037327L358.2271875,304.1369488243945L359.03765625,295.22248857989905L359.848125,281.9617051156238L360.65859375,268.0310865238309L361.4690625,265.6048112545162L362.27953125,293.729319883883L363.09000000000003,296.1151036337018L363.90046874999996,301.59005702044817L364.7109375,291.2042435053736L365.52140625000004,286.0813321270049L366.33187499999997,290.5391466513276L367.14234375,297.8831552479416L367.9528125,295.5610589381307L368.76328125,270.9122135261074L369.57375,275.74807651415466L370.38421875,305.0102234349586L371.1946875,296.2272637914866L372.00515625,292.2927852664143L372.815625,304.5933522067964L373.62609375,297.61535271555186L374.43656250000004,313.1385604211129L375.24703124999996,308.2144786180928L376.0575,307.11633194433523L376.86796875,291.90263889152556L377.6784375,309.462461930234L378.48890625,298.79605659805236L379.299375,286.88245166055856L380.10984375,243.5690741173923L380.9203125,248.73567489944398L381.73078125,264.4175134249032L382.54125,280.971698724106L383.35171875,288.7620418719947L384.1621875,306.47925711348654L384.97265625,303.763188227918L385.783125,298.9309082213789L386.59359375,302.1570418868214L387.4040625,297.3155623331666L388.21453125,289.7167274074629L389.02500000000003,285.88224807213993L389.83546874999996,293.0263708908111L390.6459375,283.97895298115907L391.45640625000004,290.0739761117846L392.26687499999997,302.751821321249L393.07734375,307.46648900266734L393.88781250000005,298.02648802045735L394.69828125,291.0361609108746L395.50875,295.3188079508021L396.31921874999995,294.69902196284386L397.1296875,308.28805022267625L397.94015625000003,285.09503708276895L398.75062499999996,305.9910685638897L399.56109375,300.3126058811322L400.37156250000004,287.62935579698535L401.18203124999997,298.8981591848657L401.9925,298.8783953597769L402.80296875,302.5504266824573L403.6134375,294.3275494299829L404.42390625,276.94304476175455L405.234375,296.9113272516057L406.04484375,289.9176220953465L406.8553125,271.25586897060276L407.66578125,304.2022216943093L408.47625,292.6203837290406L409.28671875,297.7593385770917L410.0971875,284.34243080355225L410.90765625,292.70134875178337L411.718125,304.75984711935746L412.52859375,301.1140001624823L413.3390625,311.41796585861596L414.14953125,309.47114351019263L414.96000000000004,296.78037614617494L415.77046874999996,295.04751477018L416.5809375,305.1760539983399L417.39140625,311.04753376413134L418.201875,296.3322985228151L419.01234375,278.78817439302804L419.8228125,302.59059841353445L420.63328125,300.4413499960676L421.44375,282.1201219925657L422.25421875,286.04394841045143L423.0646875,272.209158246778L423.87515625000003,283.8198695030063L424.68562499999996,298.7286397945136L425.49609375,298.7912913002074L426.30656250000004,297.0742662070319L427.11703124999997,302.63178130658343L427.9275,312.38642932046207L428.73796875,308.0967604475096L429.5484375,296.54910155851394L430.35890625,301.73045764844863L431.169375,301.0477679273114L431.97984375,297.6244509212673L432.7903125,299.8789097284898L433.60078125,287.4493689659983L434.41125,282.9487928748131L435.22171875000004,296.5614922337234L436.03218749999996,302.92456336813046L436.84265625,316.5299143495038L437.653125,305.5679389412515L438.46359375,297.48520783726127L439.2740625,295.1784433552995L440.08453125,297.22123375777153L440.895,295.75052231606094L441.70546875,295.21366061791775L442.5159375,300.98799451738597L443.32640625,281.45143089685587L444.136875,292.0256763596088L444.94734375,310.1640281761996L445.7578125,299.61586348582057L446.56828125,286.06266278903934L447.37875,234.83920160345733L448.18921875,276.40021968521177L448.9996875,277.53896372392774L449.81015625000003,295.42895028870555L450.62062499999996,294.0553194044158L451.43109375,261.597267831862L452.24156250000004,273.94001081101595L453.05203124999997,297.9527385054156L453.8625,262.52554605044423L454.67296875000005,238.60114752054216L455.4834375,282.1899890059605L456.29390625,284.3451467530802L457.10437499999995,292.94980633687226L457.91484375,302.7378294519149L458.72531250000003,296.807666259259L459.53578124999996,306.74761589756235L460.34625,303.79704301171006L461.15671875000004,286.9712357353419L461.96718749999997,279.40461386274546L462.77765625,279.50517606027427L463.588125,273.7203521998599L464.39859375,304.98939890321344L465.2090625,287.3271737575531L466.01953125,286.4283115694299L466.83,273.6197584738955L467.64046875,293.74583628010004L468.4509375,304.85319155715405L469.26140625,304.07170072682203L470.071875,299.6550848597661L470.88234375,285.8679386664182L471.6928125,296.7399566916749L472.50328125,302.9226694099605L473.31375,310.24051616108045L474.12421875,308.2153884386644L474.9346875,305.04821745194494L475.74515625000004,290.33055452108385L476.55562499999996,280.27244306206705L477.36609375,282.1178969858214L478.1765625,294.3905072119087L478.98703125,284.76193465609106L479.7975,271.7747639644891L480.60796875,293.44632064551115L481.4184375,296.0398272415623L482.22890625,292.0584614286199L483.039375,286.86923674196004L483.84984375,302.52315233359116L484.66031250000003,309.2288452302106L485.47078124999996,301.084007612057L486.28125,307.2632364382036L487.09171875000004,294.6245067572221L487.9021875,296.5645414838567L488.71265624999995,289.18799103759227L489.523125,299.8884358201176L490.33359375,289.17103324327616L491.1440625,283.7159112425521L491.95453125,289.24337749090046L492.76500000000004,301.971325888671L493.57546874999997,298.6123854441568L494.38593749999995,291.65889255553486L495.19640625,282.15652832761407L496.00687500000004,288.61862352229656L496.81734375,304.02122595338153L497.62781250000006,291.9818428259343L498.43828124999993,302.8852113763802L499.24875,285.5035330072045L500.05921875,300.7848703186959L500.8696875,306.17968292608856L501.68015625000004,291.72428703513L502.490625,287.9505089465529L503.30109374999995,296.3401400951669L504.1115625,289.6766232373193L504.92203125,305.25508452635256L505.7325,297.9031577883288L506.54296875000006,283.3733007404953L507.3534374999999,293.00265700314196L508.16390624999997,302.19236274287107L508.974375,304.4467494850978L509.78484375,301.51372217368333L510.59531250000003,301.723728579469L511.40578125,309.668169208616L512.21625,302.3188953632489L513.02671875,301.9750822765753L513.8371875,299.0808349410072L514.64765625,297.8314441094175L515.458125,280.00318571757526L516.26859375,284.8404404608533L517.0790625,298.17978828269986L517.88953125,304.77288187546657L518.7,321.86037404169326L519.51046875,291.49761559907347L520.3209375,302.0450483793393L521.13140625,289.76878986284134L521.941875,301.42554164323957L522.75234375,290.6724488772452L523.5628125,291.38989194259045L524.37328125,302.2576761493459L525.18375,306.3760420233011L525.9942187500001,310.13309202473613L526.8046875,313.7286826551892L527.6151562499999,305.82642932496964L528.425625,293.92737250849603L529.23609375,291.68452967777847L530.0465625,296.94080183487387L530.85703125,309.21430386528374L531.6675,297.24481702763586L532.47796875,279.14140096977354L533.2884375,277.7159103129059L534.09890625,297.0406749108806L534.9093750000001,299.2418731821701L535.71984375,312.7208199089393L536.5303124999999,306.1867993444204L537.34078125,307.5082168872468L538.15125,297.83102072756736L538.96171875,300.99758366588503L539.7721875000001,272.0520880844444L540.58265625,291.65337507929655L541.3931249999999,294.54785662610084L542.20359375,304.3897888620384L543.0140625,301.83677153345195L543.8245312500001,308.5522472532466L544.6350000000001,301.339221290499L545.4454687499999,289.37821109797807L546.2559375,294.4956995854154L547.06640625,292.56980311013757L547.876875,308.4849700756371L548.6873437500001,316.40831367727367L549.4978124999999,303.1998381397687L550.3082812499999,306.3226959101856L551.11875,300.6132069947198L551.92921875,300.5721975080669L552.7396875000001,297.27106670234355L553.55015625,283.21797365024685L554.3606249999999,296.52533362209795L555.17109375,300.4475070491433L555.9815625,304.20642623640595L556.79203125,304.5296827830374L557.6025000000001,306.33421279732136L558.41296875,309.2116734929383L559.2234374999999,308.22677020393314L560.03390625,305.2491549284197L560.844375,298.87201310358944L561.65484375,295.09300129469483L562.4653125,308.6037129203789L563.27578125,277.54505321606996L564.08625,301.90775555428115L564.89671875,289.0633591314778L565.7071875,299.00650890599934L566.5176562500001,288.3863895693794L567.328125,283.4859653532505L568.1385937499999,287.0804232120514L568.9490625,280.4331029620022L569.75953125,244.05556688755752L570.57,294.73770284932107L571.38046875,302.6929509758018L572.1909375,305.9942799602635L573.00140625,278.1747076043859L573.811875,291.64512363728136L574.62234375,272.4818882232532L575.4328125,301.8012299783528L576.24328125,300.70310357287525L577.05375,286.95852977577596L577.86421875,289.2843014003709L578.6746875,297.1241126637906L579.48515625,306.27555414279925L580.295625,303.4758358133957L581.10609375,301.9209074160084L581.9165625,311.4291584532708L582.72703125,303.9205083657056L583.5375,299.8102768281475L584.34796875,287.54767913240937L585.1584375,275.8223259801045L585.96890625,295.2862615970895L586.7793750000001,303.9628960954025L587.58984375,296.788280775398L588.4003124999999,300.9367427932099L589.21078125,309.5090294296853L590.02125,295.8495936689898L590.83171875,309.43961507454515L591.6421875,309.473638760671L592.45265625,305.2949860136956L593.263125,288.30672622062264L594.07359375,286.79161373339593L594.8840625,282.41846206691116L595.6945312500001,284.6108008477837L596.505,283.50112152267246L597.3154687499999,283.27100898306816L598.1259375,298.9084869995713L598.93640625,299.2902332983911L599.746875,278.7369091566652L600.5573437500001,299.6371046433225L601.3678125,287.18637226801366L602.1782812499999,270.8198036812246L602.98875,285.8305639579892L603.79921875,305.6078156562522L604.6096875000001,313.8249299610965L605.4201562500001,311.1029517458752L606.2306249999999,315.6338401759043L607.04109375,303.55666346224024L607.8515625,305.0175740645267L608.66203125,301.1180177859962L609.4725000000001,294.83196386378256L610.2829687499999,299.26020021140573L611.0934374999999,298.2101591743529L611.90390625,300.36478093806653L612.714375,310.87841748734934L613.5248437500001,293.7402782673016L614.3353125,296.9814600046724L615.1457812499999,303.911387639679L615.95625,308.57108098948373L616.76671875,313.5476959223859L617.5771875,302.40667953621596L618.3876562500001,314.50453214757147L619.198125,303.5840369004756L620.0085937499999,295.68160115573556L620.8190625,295.4568844826892L621.62953125,306.44179682787507L622.44,294.1836491456255L623.25046875,300.09337065182626L624.0609375,303.0592596013099L624.87140625,300.7880636988208L625.681875,300.6419474158436L626.49234375,302.4744318923913L627.3028125000001,304.4171623002738L628.11328125,303.10936729367825L628.9237499999999,300.3853960309178L629.73421875,313.26841703942046L630.5446875,305.6294689354487L631.35515625,306.3960130352527L632.165625,302.9305605269968L632.97609375,313.87064619278533L633.7865625,303.5154828212224L634.59703125,304.7189772586338L635.4075,313.7797384526581L636.21796875,296.8554678717628L637.0284375,289.5507752344012L637.83890625,274.13114970009775L638.649375,298.34108775947243L639.45984375,312.12781057097015L640.2703125,309.1381874655373L641.08078125,306.9043167267926L641.89125,314.64031160771844L642.70171875,313.554127723258L643.5121875,299.7755415001884L644.32265625,299.80273702796546L645.133125,273.5661376129836L645.94359375,295.59657797291874L646.7540625,311.85677412189546L647.5645312500001,307.89025369808076L648.375,308.0444840491749L649.1854687499999,309.5299462947063L649.9959375,304.42162582594904L650.80640625,307.903788405098L651.616875,290.8597142728046L652.42734375,266.6211258735508L653.2378125,279.6178947217762L654.04828125,286.07249966096134L654.85875,294.26459615211934L655.66921875,284.6406943088397L656.4796875000001,298.4028024202213L657.29015625,304.855162084382L658.1006249999999,316.7182832403108L658.91109375,308.3681234410964L659.7215625,306.0430814745836L660.53203125,295.72849294766786L661.3425000000001,294.2013275898993L662.15296875,303.7642196581699L662.9634374999999,290.4363504389301L663.77390625,304.65971956383436L664.584375,303.46742447717116L665.3948437500001,289.59602754767985L666.2053125000001,299.98502993881704L667.0157812499999,305.1257638914511L667.82625,308.57768619675187L668.63671875,308.0426373836584L669.4471875,303.98483313051986L670.2576562500001,303.13991834782064L671.0681249999999,308.980088124983L671.8785937499999,307.00349842924624L672.6890625,300.7336456188932L673.49953125,298.37121993582696L674.3100000000001,308.23899197680873L675.12046875,306.2281578958966L675.9309374999999,309.31403055926785L676.74140625,308.93703604610636L677.551875,288.24145785477015L678.36234375,310.6051853079349L679.1728125000001,306.05469294702635L679.98328125,304.1661103753373L680.7937499999999,290.9879539327696L681.60421875,298.7367786349729L682.4146875,291.2849202681333L683.22515625,297.6049753561616L684.035625,297.9524052048102L684.84609375,304.0492277082987L685.6565625,292.942739463225L686.46703125,313.2190862977877L687.2775,305.9039532441646L688.0879687500001,302.6737749308348L688.8984375,305.00083922129124L689.7089062499999,289.80119208656254L690.519375,286.5165011079982L691.32984375,286.9622546352446L692.1403125,301.40059814658014L692.95078125,289.8967998156324L693.76125,293.3370971363038L694.57171875,291.9492018869147L695.3821875,284.8047592798248L696.19265625,308.3348992260173L697.003125,305.686963289883L697.81359375,296.5407285068184L698.6240625,301.81904354449364L699.43453125,294.0687234936282L700.245,283.21677556969223L701.05546875,294.3967002974823L701.8659375,299.1990575665608L702.67640625,303.88112259348856L703.486875,316.78654230348764L704.29734375,312.1097064928152L705.1078125,314.0283424197696L705.91828125,308.599792134203L706.72875,304.2171121240593L707.53921875,313.6630652245134L708.3496875000001,309.2769148344174L709.16015625,301.9828427758068L709.9706249999999,292.0665101878345L710.78109375,312.5897742182016L711.5915625,305.0531043594703L712.40203125,305.4748782593757L713.2125,301.12504412308334L714.02296875,310.6326060388237L714.8334375,305.0149234239012L715.64390625,297.2606533104554L716.454375,308.5693784539588L717.2648437500001,291.9623492445797L718.0753125,291.4463638748974L718.8857812499999,308.90361590432L719.69625,299.0180438093841L720.50671875,295.6971987232566L721.3171875,295.5970959400758L722.1276562500001,303.9812704172917L722.938125,300.5385431550443L723.7485937499999,287.50562920738014L724.5590625,302.7804604009725L725.36953125,302.3035320069641L726.1800000000001,307.47221591779964L726.9904687500001,306.86685418915005L727.8009374999999,308.0198670970276L728.61140625,312.7469254536554L729.421875,304.588942729868L730.23234375,282.538391732052L731.0428125000001,263.5264477685094L731.8532812499999,283.1926878448576L732.6637499999999,282.27051263060423L733.47421875,296.07473822794856L734.2846875,313.2097764011472L735.0951562500001,302.3642625301145L735.905625,302.6339635247365L736.7160937499999,307.15346793746573L737.5265625,302.9262839199044L738.33703125,307.9470093863085L739.1475,314.2801712954417L739.9579687500001,304.4082329968922L740.7684375,292.88448842633517L741.5789062499999,297.6339139560238L742.389375,297.17882350776347L743.19984375,297.7759495586157L744.0103125,304.37669780515137L744.82078125,307.3601323290728L745.63125,305.02275148406625L746.44171875,301.71073435992L747.2521875,305.7004349400289L748.06265625,309.2638958425261L748.8731250000001,304.6372780737467L749.68359375,303.3545729458332L750.4940624999999,297.2058478811756L751.30453125,314.18284977069123L752.115,303.35619666026906L752.92546875,294.79795368984344L753.7359375,289.4911279382184L754.54640625,294.1282897166908L755.356875,292.56862304583194L756.16734375,300.8406396172941L756.9778125,298.04273417294024L757.78828125,309.48675008583814L758.59875,313.0094785015099L759.40921875,298.2212571837008L760.2196875,298.2498084342107L761.03015625,307.43296076338737L761.840625,305.90501620285215L762.65109375,298.02774014975876L763.4615625,300.416766824387L764.27203125,301.69133085981014L765.0825,307.7017812138423L765.89296875,309.66008441690354L766.7034375,303.1066400839947L767.51390625,288.5964635360986L768.324375,294.3564384851605L769.1348437500001,291.8798123041168L769.9453125,300.5570503467694L770.7557812499999,291.6840522471815L771.56625,281.286010203138L772.37671875,280.2629980435595L773.1871875,269.88359380904586L773.99765625,291.26003532428297L774.808125,294.0063782641664L775.61859375,282.70210538618267L776.4290625,281.89501346610484L777.23953125,287.7751027468592L778.0500000000001,298.81224870178846L778.86046875,301.11994552463295L779.6709374999999,302.66508209072055L780.48140625,303.6599348532036L781.291875,293.8284227652475L782.10234375,288.1110562449321L782.9128125000001,297.551953535527L783.72328125,292.36623751334844L784.5337499999999,310.1969190906733L785.34421875,286.02353149633853L786.1546875,287.9056935273111L786.9651562500001,296.42645143978297L787.7756250000001,297.73132781405L788.5860937499999,304.88978030672297L789.3965625,312.72004521023484L790.20703125,304.58947195718065L791.0175,300.490809103474L791.8279687500001,308.1049420765601L792.6384374999999,310.1096911693923L793.4489062499999,306.05420876033605L794.259375,296.3500580402091L795.06984375,307.41444681556897L795.8803125000001,309.956510264799L796.69078125,300.98772427365185L797.5012499999999,315.72337417704983L798.31171875,313.4531939405948L799.1221875,316.3695201892406L799.93265625,314.9214461643249L800.7431250000001,306.124116310291L801.55359375,305.1819227914326L802.3640624999999,305.5461798165925L803.17453125,309.1630498890765L803.985,300.1198094971478L804.79546875,303.4897488616407L805.6059375,304.92220054669303L806.41640625,302.79140302017333L807.226875,310.7781908424571L808.03734375,305.3485505738296L808.8478125,287.32366959713397L809.6582812500001,287.8274219337851L810.46875,280.6642649481073L811.2792187499999,285.51500935778023L812.0896875,307.5379391939379L812.90015625,313.73839791743086L813.710625,307.7502989722416L814.52109375,308.7824588822201L815.3315625,302.176918313466L816.14203125,311.0958578478545L816.9525,296.6653469007462L817.76296875,289.92657617107034L818.5734375,289.3555691771209L819.38390625,294.3360305791721L820.194375,304.9469728889875L821.00484375,312.36134169381114L821.8153125,305.25780723197386L822.62578125,302.5003978111781L823.43625,302.6462731268257L824.24671875,310.2182683456689L825.0571875,307.4454662921838L825.86765625,313.7609722773544L826.678125,304.0477999205701L827.48859375,307.90354968979955L828.2990625,304.5787522890605L829.10953125,300.4569565717131L829.9200000000001,299.0024867784232L830.73046875,310.8277220148593L831.5409374999999,311.3237566408701L832.35140625,291.5472773892805L833.161875,301.1600046541542L833.97234375,299.56980494540187L834.7828125,309.3896334959194L835.59328125,306.08796895882114L836.40375,298.70198925826696L837.21421875,290.0776063859463L838.0246875,310.46763575132934L838.8351562500001,296.561140916869L839.645625,299.1208625420928L840.4560937499999,296.8860999990255L841.2665625,294.1160927161574L842.07703125,305.8371985377744L842.8875,311.6422659059055L843.6979687500001,306.4967328749597L844.5084375,303.4928431523964L845.3189062499999,306.66478619305417L846.129375,301.91716904435305L846.93984375,314.21383321480823L847.7503125000001,314.70048813121394L848.5607812500001,302.74900177828965L849.3712499999999,302.48153930259866L850.18171875,311.4611868398264L850.9921875,303.5353569958359L851.80265625,314.8409202876501L852.6131250000001,315.8972354833968L853.4235937499999,314.61363404709846L854.2340624999999,303.6884838516824L855.04453125,299.79776454325764L855.855,297.84011442922053L856.6654687500001,311.3905608919449L857.4759375,317.7993167296052L858.2864062499999,313.7643165435642L859.096875,307.92588533442466L859.90734375,304.86517911879344L860.7178125,301.62439148686826L861.5282812500001,320.1037075707689L862.33875,310.2638629676774L863.1492187499999,295.8476884506643L863.9596875,305.6288226025179L864.77015625,296.0268960788846L865.580625,303.3381128503941L866.39109375,307.2707289457321L867.2015625,312.4912320925854L868.01203125,297.13743567988274L868.8225,303.7047592805699L869.63296875,317.0415758194402L870.4434375000001,304.77855474185196L871.25390625,310.9715727545321L872.0643749999999,301.37907773721963L872.87484375,303.8650993920863L873.6853125,304.4623020119965L874.49578125,300.77543881237506L875.30625,300.3880128910765L876.11671875,303.71128341471774L876.9271875,311.4711363133043L877.73765625,300.6426365373656L878.548125,314.575101794675L879.35859375,320.611211791262L880.1690625,308.2170977302827L880.97953125,300.01948151085526L881.79,311.7674180312082L882.60046875,284.45490624569356L883.4109375,308.34503336604683L884.22140625,295.6152878474444L885.031875,302.6199131025933L885.84234375,304.8312027253211L886.6528125,308.65594427809117L887.46328125,297.6505429537967L888.27375,287.31926012020557L889.08421875,306.2191542754881L889.8946875,302.5280392411165" style="fill: none;" fill="none"></path></g></g></g></g></g></g><g transform="translate(29, 377)" clip-path="url(#clip_1)"><clipPath id="clip_1"><rect width="972" height="22"></rect></clipPath><g><g><line x1="0" y1="0" x2="0" y2="5" style="visibility: inherit;" fill="rgb(0, 0, 0)" stroke="rgb(204, 204, 204)" stroke-width="1px"></line><line x1="81.046875" y1="0" x2="81.046875" y2="5" style="visibility: inherit;" fill="rgb(0, 0, 0)" stroke="rgb(204, 204, 204)" stroke-width="1px"></line><line x1="162.09375" y1="0" x2="162.09375" y2="5" style="visibility: inherit;" fill="rgb(0, 0, 0)" stroke="rgb(204, 204, 204)" stroke-width="1px"></line><line x1="243.140625" y1="0" x2="243.140625" y2="5" style="visibility: inherit;" fill="rgb(0, 0, 0)" stroke="rgb(204, 204, 204)" stroke-width="1px"></line><line x1="324.1875" y1="0" x2="324.1875" y2="5" style="visibility: inherit;" fill="rgb(0, 0, 0)" stroke="rgb(204, 204, 204)" stroke-width="1px"></line><line x1="405.234375" y1="0" x2="405.234375" y2="5" style="visibility: inherit;" fill="rgb(0, 0, 0)" stroke="rgb(204, 204, 204)" stroke-width="1px"></line><line x1="486.28125" y1="0" x2="486.28125" y2="5" style="visibility: inherit;" fill="rgb(0, 0, 0)" stroke="rgb(204, 204, 204)" stroke-width="1px"></line><line x1="567.328125" y1="0" x2="567.328125" y2="5" style="visibility: inherit;" fill="rgb(0, 0, 0)" stroke="rgb(204, 204, 204)" stroke-width="1px"></line><line x1="648.375" y1="0" x2="648.375" y2="5" style="visibility: inherit;" fill="rgb(0, 0, 0)" stroke="rgb(204, 204, 204)" stroke-width="1px"></line><line x1="729.421875" y1="0" x2="729.421875" y2="5" style="visibility: inherit;" fill="rgb(0, 0, 0)" stroke="rgb(204, 204, 204)" stroke-width="1px"></line><line x1="810.46875" y1="0" x2="810.46875" y2="5" style="visibility: inherit;" fill="rgb(0, 0, 0)" stroke="rgb(204, 204, 204)" stroke-width="1px"></line><line x1="891.515625" y1="0" x2="891.515625" y2="5" style="visibility: inherit;" fill="rgb(0, 0, 0)" stroke="rgb(204, 204, 204)" stroke-width="1px"></line><line x1="972.5625" y1="0" x2="972.5625" y2="5" style="visibility: inherit;" fill="rgb(0, 0, 0)" stroke="rgb(204, 204, 204)" stroke-width="1px"></line></g><g transform="translate(0, 8)"><text x="0" y="0" dx="0em" dy="0.95em" style="text-anchor: middle; visibility: hidden; font-family: &quot;Helvetica Neue&quot;, sans-serif; font-size: 12px; font-weight: 200;" fill="rgb(50, 49, 63)" stroke="none" stroke-width="1px">-100</text><text x="81.046875" y="0" dx="0em" dy="0.95em" style="text-anchor: middle; visibility: inherit; font-family: &quot;Helvetica Neue&quot;, sans-serif; font-size: 12px; font-weight: 200;" fill="rgb(50, 49, 63)" stroke="none" stroke-width="1px">0</text><text x="162.09375" y="0" dx="0em" dy="0.95em" style="text-anchor: middle; visibility: inherit; font-family: &quot;Helvetica Neue&quot;, sans-serif; font-size: 12px; font-weight: 200;" fill="rgb(50, 49, 63)" stroke="none" stroke-width="1px">100</text><text x="243.140625" y="0" dx="0em" dy="0.95em" style="text-anchor: middle; visibility: inherit; font-family: &quot;Helvetica Neue&quot;, sans-serif; font-size: 12px; font-weight: 200;" fill="rgb(50, 49, 63)" stroke="none" stroke-width="1px">200</text><text x="324.1875" y="0" dx="0em" dy="0.95em" style="text-anchor: middle; visibility: inherit; font-family: &quot;Helvetica Neue&quot;, sans-serif; font-size: 12px; font-weight: 200;" fill="rgb(50, 49, 63)" stroke="none" stroke-width="1px">300</text><text x="405.234375" y="0" dx="0em" dy="0.95em" style="text-anchor: middle; visibility: inherit; font-family: &quot;Helvetica Neue&quot;, sans-serif; font-size: 12px; font-weight: 200;" fill="rgb(50, 49, 63)" stroke="none" stroke-width="1px">400</text><text x="486.28125" y="0" dx="0em" dy="0.95em" style="text-anchor: middle; visibility: inherit; font-family: &quot;Helvetica Neue&quot;, sans-serif; font-size: 12px; font-weight: 200;" fill="rgb(50, 49, 63)" stroke="none" stroke-width="1px">500</text><text x="567.328125" y="0" dx="0em" dy="0.95em" style="text-anchor: middle; visibility: inherit; font-family: &quot;Helvetica Neue&quot;, sans-serif; font-size: 12px; font-weight: 200;" fill="rgb(50, 49, 63)" stroke="none" stroke-width="1px">600</text><text x="648.375" y="0" dx="0em" dy="0.95em" style="text-anchor: middle; visibility: inherit; font-family: &quot;Helvetica Neue&quot;, sans-serif; font-size: 12px; font-weight: 200;" fill="rgb(50, 49, 63)" stroke="none" stroke-width="1px">700</text><text x="729.421875" y="0" dx="0em" dy="0.95em" style="text-anchor: middle; visibility: inherit; font-family: &quot;Helvetica Neue&quot;, sans-serif; font-size: 12px; font-weight: 200;" fill="rgb(50, 49, 63)" stroke="none" stroke-width="1px">800</text><text x="810.46875" y="0" dx="0em" dy="0.95em" style="text-anchor: middle; visibility: inherit; font-family: &quot;Helvetica Neue&quot;, sans-serif; font-size: 12px; font-weight: 200;" fill="rgb(50, 49, 63)" stroke="none" stroke-width="1px">900</text><text x="891.515625" y="0" dx="0em" dy="0.95em" style="text-anchor: middle; visibility: inherit; font-family: &quot;Helvetica Neue&quot;, sans-serif; font-size: 12px; font-weight: 200;" fill="rgb(50, 49, 63)" stroke="none" stroke-width="1px">1k</text><text x="972.5625" y="0" dx="0em" dy="0.95em" style="text-anchor: middle; visibility: hidden; font-family: &quot;Helvetica Neue&quot;, sans-serif; font-size: 12px; font-weight: 200;" fill="rgb(50, 49, 63)" stroke="none" stroke-width="1px">1.1k</text></g><line x1="0" y1="0" x2="972.5625" y2="0" fill="rgb(0, 0, 0)" stroke="rgb(204, 204, 204)" stroke-width="1px"></line></g></g></g></g></svg>